Bevan.ufo
<glyph name="exclam" format="1">
  <advance width="774"/>
  <unicode hex="0021"/>
  <outline>
    <contour>
      <point x="603" y="558" type="line" smooth="no"/>
      <point x="182" y="556" type="line" smooth="no"/>
      <point x="100" y="1331" type="line" smooth="no"/>
      <point x="100" y="1630" type="line" smooth="no"/>
      <point x="687" y="1630" type="line" smooth="no"/>
      <point x="687" y="1331" type="line" smooth="no"/>
    </contour>
    <contour>
      <point x="392" y="463" type="qcurve" smooth="yes"/>
      <point x="273" y="463"/>
      <point x="115" y="328"/>
      <point x="115" y="213" type="qcurve" smooth="yes"/>
      <point x="115" y="100"/>
      <point x="270" y="-32"/>
      <point x="392" y="-32" type="qcurve" smooth="yes"/>
      <point x="519" y="-32"/>
      <point x="679" y="100"/>
      <point x="679" y="213" type="qcurve" smooth="yes"/>
      <point x="679" y="328"/>
      <point x="514" y="463"/>
    </contour>
  </outline>
</glyph>
<glyph name="percent" format="1">
  <advance width="2940"/>
  <unicode hex="0025"/>
  <outline>
    <contour>
      <point x="1676" y="521" type="qcurve" smooth="yes"/>
      <point x="1676" y="273"/>
      <point x="1948" y="-18"/>
      <point x="2194" y="-18" type="qcurve" smooth="yes"/>
      <point x="2311" y="-18"/>
      <point x="2497" y="78"/>
      <point x="2611" y="240"/>
      <point x="2671" y="442"/>
      <point x="2671" y="555" type="qcurve" smooth="yes"/>
      <point x="2671" y="800"/>
      <point x="2413" y="1096"/>
      <point x="2170" y="1096" type="qcurve" smooth="yes"/>
      <point x="2022" y="1096"/>
      <point x="1794" y="939"/>
      <point x="1676" y="679"/>
    </contour>
    <contour>
      <point x="2176" y="755" type="qcurve" smooth="no"/>
      <point x="2199" y="753"/>
      <point x="2233" y="731"/>
      <point x="2253" y="690"/>
      <point x="2266" y="653"/>
      <point x="2270" y="595"/>
      <point x="2271" y="566"/>
      <point x="2270.5" y="539.5" type="qcurve" smooth="yes"/>
      <point x="2270" y="513" type="line" smooth="yes"/>
      <point x="2270" y="491"/>
      <point x="2268" y="457"/>
      <point x="2263" y="411"/>
      <point x="2249" y="378"/>
      <point x="2229" y="348"/>
      <point x="2195" y="332"/>
      <point x="2173" y="332" type="qcurve" smooth="yes"/>
      <point x="2080" y="332"/>
      <point x="2080" y="540" type="qcurve" smooth="yes"/>
      <point x="2080" y="650.681"/>
      <point x="2096.29" y="693.42" type="qcurve" smooth="no"/>
      <point x="2120.19" y="751.964"/>
    </contour>
    <contour>
      <point x="1442" y="0" type="line" smooth="no"/>
      <point x="1784" y="1623" type="line" smooth="no"/>
      <point x="1280" y="1623" type="line" smooth="no"/>
      <point x="939" y="0" type="line" smooth="no"/>
    </contour>
    <contour>
      <point x="57" y="1078" type="qcurve" smooth="yes"/>
      <point x="57" y="830"/>
      <point x="329" y="539"/>
      <point x="575" y="539" type="qcurve" smooth="yes"/>
      <point x="692" y="539"/>
      <point x="878" y="635"/>
      <point x="992" y="797"/>
      <point x="1052" y="999"/>
      <point x="1052" y="1112" type="qcurve" smooth="yes"/>
      <point x="1052" y="1357"/>
      <point x="794" y="1653"/>
      <point x="551" y="1653" type="qcurve" smooth="yes"/>
      <point x="403" y="1653"/>
      <point x="175" y="1496"/>
      <point x="57" y="1236"/>
    </contour>
    <contour>
      <point x="557" y="1312" type="qcurve" smooth="no"/>
      <point x="580" y="1310"/>
      <point x="614" y="1288"/>
      <point x="634" y="1247"/>
      <point x="647" y="1210"/>
      <point x="651" y="1152"/>
      <point x="652" y="1123"/>
      <point x="651.5" y="1096.5" type="qcurve" smooth="yes"/>
      <point x="651" y="1070" type="line" smooth="yes"/>
      <point x="651" y="1048"/>
      <point x="649" y="1014"/>
      <point x="644" y="968"/>
      <point x="630" y="935"/>
      <point x="610" y="905"/>
      <point x="576" y="889"/>
      <point x="554" y="889" type="qcurve" smooth="yes"/>
      <point x="461" y="889"/>
      <point x="461" y="1097" type="qcurve" smooth="yes"/>
      <point x="461" y="1207.68"/>
      <point x="477.294" y="1250.42" type="qcurve" smooth="yes"/>
      <point x="499.901" y="1309.72"/>
    </contour>
  </outline>
</glyph>
<glyph name="ampersand" format="1">
  <advance width="1737"/>
  <unicode hex="0026"/>
  <outline>
    <contour>
      <point x="1683" y="0" type="line" smooth="no"/>
      <point x="1683" y="368" type="line" smooth="no"/>
      <point x="1453" y="368" type="line" smooth="no"/>
      <point x="1310" y="516"/>
      <point x="1305" y="518" type="qcurve" smooth="no"/>
      <point x="1475" y="694" type="line" smooth="yes"/>
      <point x="1539" y="760"/>
      <point x="1613" y="813"/>
      <point x="1683" y="837" type="qcurve" smooth="no"/>
      <point x="1683" y="1126" type="line" smooth="no"/>
      <point x="1200" y="1126" type="line" smooth="no"/>
      <point x="1200" y="831" type="line" smooth="no"/>
      <point x="1247" y="831" type="line" smooth="yes"/>
      <point x="1274" y="831"/>
      <point x="1274" y="796" type="qcurve" smooth="yes"/>
      <point x="1274" y="780"/>
      <point x="1220" y="717"/>
      <point x="1193.5" y="693" type="qcurve" smooth="yes"/>
      <point x="1167" y="669" type="line" smooth="no"/>
      <point x="988" y="844" type="line" smooth="no"/>
      <point x="1041" y="891"/>
      <point x="1095" y="947"/>
      <point x="1141" y="1023"/>
      <point x="1157" y="1108"/>
      <point x="1157" y="1169" type="qcurve" smooth="yes"/>
      <point x="1157" y="1249"/>
      <point x="1082" y="1384"/>
      <point x="960" y="1469"/>
      <point x="810" y="1515"/>
      <point x="733" y="1515" type="qcurve" smooth="yes"/>
      <point x="635" y="1515"/>
      <point x="461" y="1462"/>
      <point x="329" y="1362"/>
      <point x="252" y="1207"/>
      <point x="252" y="1111" type="qcurve" smooth="no"/>
      <point x="255" y="936"/>
      <point x="371" y="809" type="qcurve" smooth="no"/>
      <point x="215" y="742"/>
      <point x="60" y="534"/>
      <point x="57" y="380" type="qcurve" smooth="no"/>
      <point x="61" y="189"/>
      <point x="316" y="-25"/>
      <point x="510" y="-27" type="qcurve" smooth="no"/>
      <point x="786" y="-21"/>
      <point x="971" y="183" type="qcurve" smooth="no"/>
      <point x="1095" y="49"/>
      <point x="1144" y="0" type="qcurve" smooth="no"/>
    </contour>
    <contour>
      <point x="514" y="487" type="qcurve" smooth="yes"/>
      <point x="514" y="504"/>
      <point x="527" y="537"/>
      <point x="544" y="561"/>
      <point x="562" y="580"/>
      <point x="568.5" y="584.5" type="qcurve" smooth="yes"/>
      <point x="575" y="589" type="line" smooth="no"/>
      <point x="782" y="375" type="line" smooth="no"/>
      <point x="730" y="335"/>
      <point x="668" y="335" type="qcurve" smooth="yes"/>
      <point x="602" y="335"/>
      <point x="514" y="421"/>
    </contour>
    <contour>
      <point x="705" y="1175" type="qcurve" smooth="yes"/>
      <point x="705" y="1214"/>
      <point x="760" y="1273"/>
      <point x="799" y="1273" type="qcurve" smooth="yes"/>
      <point x="850" y="1273"/>
      <point x="903" y="1203"/>
      <point x="903" y="1152" type="qcurve" smooth="yes"/>
      <point x="903" y="1111"/>
      <point x="859" y="1058"/>
      <point x="811" y="1025" type="qcurve" smooth="no"/>
      <point x="779" y="1050"/>
      <point x="741" y="1086"/>
      <point x="705" y="1145"/>
    </contour>
  </outline>
</glyph>
<glyph name="one" format="1">
  <advance width="874"/>
  <unicode hex="0031"/>
  <outline>
    <contour>
      <point x="817" y="0" type="line" smooth="no"/>
      <point x="817" y="324" type="line" smooth="no"/>
      <point x="721" y="324" type="line" smooth="no"/>
      <point x="715" y="1375" type="line" smooth="no"/>
      <point x="53" y="1208" type="line" smooth="no"/>
      <point x="53" y="950" type="line" smooth="no"/>
      <point x="217" y="951" type="line" smooth="no"/>
      <point x="217" y="324" type="line" smooth="no"/>
      <point x="127" y="325" type="line" smooth="no"/>
      <point x="128" y="0" type="line" smooth="no"/>
    </contour>
  </outline>
</glyph>
<glyph name="three" format="1">
  <advance width="1264"/>
  <unicode hex="0033"/>
  <outline>
    <contour>
      <point x="81" y="424" type="qcurve" smooth="no"/>
      <point x="81" y="78" type="line" smooth="no"/>
      <point x="170" y="18"/>
      <point x="397" y="-18"/>
      <point x="555" y="-18" type="qcurve" smooth="yes"/>
      <point x="855" y="-18"/>
      <point x="1204" y="238"/>
      <point x="1204" y="474" type="qcurve" smooth="yes"/>
      <point x="1204" y="614"/>
      <point x="997" y="838"/>
      <point x="853" y="851" type="qcurve" smooth="no"/>
      <point x="1137" y="1085"/>
      <point x="1137" y="1088" type="qcurve" smooth="yes"/>
      <point x="1137" y="1352" type="line" smooth="no"/>
      <point x="68" y="1352" type="line" smooth="no"/>
      <point x="68" y="899" type="line" smooth="no"/>
      <point x="262" y="898" type="line" smooth="no"/>
      <point x="282.804" y="977.6"/>
      <point x="298.234" y="999.864" type="qcurve" smooth="yes"/>
      <point x="326.743" y="1041"/>
      <point x="399" y="1041" type="qcurve" smooth="yes"/>
      <point x="619" y="1041" type="line" smooth="no"/>
      <point x="619" y="1031" type="line" smooth="no"/>
      <point x="277" y="740" type="line" smooth="no"/>
      <point x="277" y="582" type="line" smooth="no"/>
      <point x="278.058" y="576.643" type="line" smooth="no"/>
      <point x="283.922" y="572.267"/>
      <point x="298" y="572" type="qcurve" smooth="yes"/>
      <point x="304" y="572"/>
      <point x="386" y="592"/>
      <point x="425" y="592" type="qcurve" smooth="yes"/>
      <point x="470" y="592"/>
      <point x="552" y="576"/>
      <point x="628" y="540"/>
      <point x="674" y="471"/>
      <point x="674" y="424" type="qcurve" smooth="yes"/>
      <point x="674" y="383"/>
      <point x="632" y="324"/>
      <point x="563" y="292"/>
      <point x="490" y="278"/>
      <point x="451" y="278" type="qcurve" smooth="yes"/>
      <point x="262" y="278"/>
    </contour>
  </outline>
</glyph>
<glyph name="four" format="1">
  <advance width="1343"/>
  <unicode hex="0034"/>
  <outline>
    <contour>
      <point x="1052" y="420" type="line" smooth="no"/>
      <point x="1280" y="420" type="line" smooth="no"/>
      <point x="1280" y="677" type="line" smooth="no"/>
      <point x="1053" y="675" type="line" smooth="no"/>
      <point x="1053" y="1341" type="line" smooth="no"/>
      <point x="614" y="1342" type="line" smooth="no"/>
      <point x="63" y="688" type="line" smooth="no"/>
      <point x="63" y="419" type="line" smooth="no"/>
      <point x="596" y="420" type="line" smooth="no"/>
      <point x="596" y="288" type="line" smooth="no"/>
      <point x="469" y="288" type="line" smooth="no"/>
      <point x="469" y="0" type="line" smooth="no"/>
      <point x="1174" y="0" type="line" smooth="no"/>
      <point x="1174" y="288" type="line" smooth="no"/>
      <point x="1052" y="288" type="line" smooth="no"/>
    </contour>
    <contour>
      <point x="407" y="678" type="line" smooth="no"/>
      <point x="596" y="911" type="line" smooth="no"/>
      <point x="596" y="677" type="line" smooth="no"/>
    </contour>
  </outline>
</glyph>
<glyph name="five" format="1">
  <advance width="1116"/>
  <unicode hex="0035"/>
  <outline>
    <contour>
      <point x="69" y="75" type="line" smooth="no"/>
      <point x="115" y="30"/>
      <point x="335" y="-18"/>
      <point x="434" y="-18" type="qcurve" smooth="yes"/>
      <point x="536" y="-18"/>
      <point x="719" y="20"/>
      <point x="878" y="104"/>
      <point x="993" y="226"/>
      <point x="1059" y="404"/>
      <point x="1059" y="513" type="qcurve" smooth="yes"/>
      <point x="1059" y="697"/>
      <point x="784" y="941"/>
      <point x="584" y="941" type="qcurve" smooth="yes"/>
      <point x="528" y="941"/>
      <point x="423" y="932"/>
      <point x="398" y="928" type="qcurve" smooth="yes"/>
      <point x="373" y="924" type="line" smooth="no"/>
      <point x="373" y="1063" type="line" smooth="no"/>
      <point x="984" y="1063" type="line" smooth="no"/>
      <point x="984" y="1360" type="line" smooth="no"/>
      <point x="68" y="1360" type="line" smooth="no"/>
      <point x="68" y="566" type="line" smooth="no"/>
      <point x="80" y="555" type="line" smooth="no"/>
      <point x="166" y="619"/>
      <point x="258" y="619" type="qcurve" smooth="yes"/>
      <point x="317" y="619"/>
      <point x="427" y="587"/>
      <point x="510" y="505"/>
      <point x="510" y="446" type="qcurve" smooth="yes"/>
      <point x="510" y="398"/>
      <point x="458" y="328"/>
      <point x="379" y="295"/>
      <point x="310" y="281"/>
      <point x="281" y="281" type="qcurve" smooth="yes"/>
      <point x="247" y="281"/>
      <point x="141" y="314"/>
      <point x="105" y="330.5" type="qcurve" smooth="yes"/>
      <point x="69" y="347" type="line" smooth="no"/>
    </contour>
  </outline>
</glyph>
<glyph name="greater" format="1">
  <advance width="841"/>
  <unicode hex="003e"/>
  <outline>
    <contour>
      <point x="828" y="946" type="line" smooth="no"/>
      <point x="113" y="1542" type="line" smooth="no"/>
      <point x="113" y="1077" type="line" smooth="no"/>
      <point x="446" y="761" type="line" smooth="no"/>
      <point x="113" y="445" type="line" smooth="no"/>
      <point x="113" y="-20" type="line" smooth="no"/>
      <point x="828" y="576" type="line" smooth="no"/>
    </contour>
  </outline>
</glyph>
<glyph name="question" format="1">
  <advance width="1311"/>
  <unicode hex="003f"/>
  <outline>
    <contour>
      <point x="358" y="539" type="line" smooth="no"/>
      <point x="705" y="539" type="line" smooth="no"/>
      <point x="705" y="726" type="line" smooth="no"/>
      <point x="766" y="747"/>
      <point x="859" y="784"/>
      <point x="982" y="843"/>
      <point x="1073" y="903"/>
      <point x="1168" y="989"/>
      <point x="1228" y="1082"/>
      <point x="1267" y="1204"/>
      <point x="1267" y="1272" type="qcurve" smooth="yes"/>
      <point x="1267" y="1404"/>
      <point x="1111" y="1617"/>
      <point x="836" y="1737"/>
      <point x="667" y="1737" type="qcurve" smooth="yes"/>
      <point x="410" y="1737"/>
      <point x="71" y="1445"/>
      <point x="57" y="1219" type="qcurve" smooth="no"/>
      <point x="529" y="1219" type="line" smooth="no"/>
      <point x="539" y="1381"/>
      <point x="659" y="1381" type="qcurve" smooth="yes"/>
      <point x="689" y="1381"/>
      <point x="731" y="1350"/>
      <point x="748" y="1302"/>
      <point x="755" y="1265"/>
      <point x="755" y="1249" type="qcurve" smooth="yes"/>
      <point x="755" y="1070"/>
      <point x="359" y="891" type="qcurve" smooth="no"/>
    </contour>
    <contour>
      <point x="538" y="-27" type="qcurve" smooth="yes"/>
      <point x="419" y="-27"/>
      <point x="261" y="108"/>
      <point x="261" y="223" type="qcurve" smooth="yes"/>
      <point x="261" y="336"/>
      <point x="416" y="468"/>
      <point x="538" y="468" type="qcurve" smooth="yes"/>
      <point x="665" y="468"/>
      <point x="825" y="336"/>
      <point x="825" y="223" type="qcurve" smooth="yes"/>
      <point x="825" y="108"/>
      <point x="660" y="-27"/>
    </contour>
  </outline>
</glyph>
<glyph name="K" format="1">
  <advance width="1796"/>
  <unicode hex="004b"/>
  <outline>
    <contour>
      <point x="68" y="1270" type="line" smooth="no"/>
      <point x="215" y="1270" type="line" smooth="no"/>
      <point x="215" y="359" type="line" smooth="no"/>
      <point x="68" y="359" type="line" smooth="no"/>
      <point x="68" y="0" type="line" smooth="no"/>
      <point x="895" y="0" type="line" smooth="no"/>
      <point x="895" y="35" type="line" smooth="no"/>
      <point x="889" y="359" type="line" smooth="no"/>
      <point x="762" y="359" type="line" smooth="no"/>
      <point x="762" y="640" type="line" smooth="no"/>
      <point x="932" y="640" type="line" smooth="yes"/>
      <point x="978" y="640"/>
      <point x="1042" y="540"/>
      <point x="1042" y="492" type="qcurve" smooth="yes"/>
      <point x="1042" y="307" type="line" smooth="yes"/>
      <point x="1042" y="0"/>
      <point x="1378" y="0" type="qcurve" smooth="yes"/>
      <point x="1726" y="0" type="line" smooth="no"/>
      <point x="1720" y="359" type="line" smooth="no"/>
      <point x="1630" y="359" type="line" smooth="yes"/>
      <point x="1599" y="359"/>
      <point x="1563" y="426"/>
      <point x="1563" y="461" type="qcurve" smooth="yes"/>
      <point x="1563" y="602" type="line" smooth="yes"/>
      <point x="1563" y="673"/>
      <point x="1512" y="772"/>
      <point x="1415" y="826"/>
      <point x="1295" y="850"/>
      <point x="1217" y="850" type="qcurve" smooth="no"/>
      <point x="1217" y="864" type="line" smooth="no"/>
      <point x="1536" y="1270" type="line" smooth="no"/>
      <point x="1673" y="1270" type="line" smooth="no"/>
      <point x="1673" y="1623" type="line" smooth="no"/>
      <point x="1049" y="1622" type="line" smooth="no"/>
      <point x="1049" y="1270" type="line" smooth="no"/>
      <point x="762" y="887" type="line" smooth="no"/>
      <point x="762" y="1270" type="line" smooth="no"/>
      <point x="889" y="1270" type="line" smooth="no"/>
      <point x="889" y="1622" type="line" smooth="no"/>
      <point x="68" y="1622" type="line" smooth="no"/>
    </contour>
  </outline>
</glyph>
<glyph name="N" format="1">
  <advance width="1924"/>
  <unicode hex="004e"/>
  <outline>
    <contour>
      <point x="1829" y="1622" type="line" smooth="no"/>
      <point x="1192" y="1623" type="line" smooth="no"/>
      <point x="1192" y="1270" type="line" smooth="no"/>
      <point x="1231" y="1271"/>
      <point x="1289" y="1261"/>
      <point x="1322" y="1234"/>
      <point x="1342" y="1209"/>
      <point x="1349" y="1164"/>
      <point x="1350" y="1140"/>
      <point x="1350" y="1116" type="qcurve" smooth="yes"/>
      <point x="1350" y="647" type="line" smooth="no"/>
      <point x="854" y="1623" type="line" smooth="no"/>
      <point x="119" y="1623" type="line" smooth="no"/>
      <point x="119" y="1272" type="line" smooth="no"/>
      <point x="276" y="1272" type="line" smooth="no"/>
      <point x="276" y="550" type="line" smooth="yes"/>
      <point x="276" y="512"/>
      <point x="272" y="468"/>
      <point x="255" y="411"/>
      <point x="222" y="381"/>
      <point x="159" y="359"/>
      <point x="113" y="359" type="qcurve" smooth="no"/>
      <point x="113" y="0" type="line" smooth="no"/>
      <point x="750" y="0" type="line" smooth="no"/>
      <point x="750" y="359" type="line" smooth="no"/>
      <point x="665" y="359"/>
      <point x="592" y="425"/>
      <point x="592" y="507" type="qcurve" smooth="yes"/>
      <point x="592" y="908" type="line" smooth="no"/>
      <point x="1065" y="0" type="line" smooth="no"/>
      <point x="1671" y="0" type="line" smooth="no"/>
      <point x="1671" y="1118" type="line" smooth="yes"/>
      <point x="1671" y="1192"/>
      <point x="1744" y="1270"/>
      <point x="1829" y="1270" type="qcurve" smooth="no"/>
    </contour>
  </outline>
</glyph>
<glyph name="X" format="1">
  <advance width="1954"/>
  <unicode hex="0058"/>
  <outline>
    <contour>
      <point x="1853" y="1623" type="line" smooth="no"/>
      <point x="1116" y="1623" type="line" smooth="no"/>
      <point x="1116" y="1270" type="line" smooth="no"/>
      <point x="1139" y="1270"/>
      <point x="1202" y="1245"/>
      <point x="1202" y="1226" type="qcurve" smooth="yes"/>
      <point x="1202" y="1210"/>
      <point x="1157" y="1129"/>
      <point x="1134.5" y="1096.5" type="qcurve" smooth="yes"/>
      <point x="1112" y="1064" type="line" smooth="no"/>
      <point x="950" y="1270" type="line" smooth="no"/>
      <point x="1032" y="1270" type="line" smooth="no"/>
      <point x="1032" y="1623" type="line" smooth="no"/>
      <point x="154" y="1623" type="line" smooth="no"/>
      <point x="154" y="1270" type="line" smooth="no"/>
      <point x="285" y="1270" type="line" smooth="no"/>
      <point x="656" y="862" type="line" smooth="no"/>
      <point x="369" y="493" type="line" smooth="no"/>
      <point x="308" y="408"/>
      <point x="193" y="359"/>
      <point x="63" y="359" type="qcurve" smooth="no"/>
      <point x="63" y="0" type="line" smooth="no"/>
      <point x="891" y="0" type="line" smooth="no"/>
      <point x="885" y="359" type="line" smooth="no"/>
      <point x="801" y="359" type="line" smooth="yes"/>
      <point x="775" y="359"/>
      <point x="737" y="393"/>
      <point x="737" y="420" type="qcurve" smooth="yes"/>
      <point x="737" y="434"/>
      <point x="750" y="473"/>
      <point x="758" y="483" type="qcurve" smooth="yes"/>
      <point x="868" y="634" type="line" smooth="no"/>
      <point x="1111" y="359" type="line" smooth="no"/>
      <point x="985" y="359" type="line" smooth="no"/>
      <point x="985" y="0" type="line" smooth="no"/>
      <point x="1884" y="0" type="line" smooth="no"/>
      <point x="1884" y="359" type="line" smooth="no"/>
      <point x="1762" y="359" type="line" smooth="no"/>
      <point x="1333" y="829" type="line" smooth="no"/>
      <point x="1591" y="1180" type="line" smooth="yes"/>
      <point x="1629" y="1233"/>
      <point x="1761" y="1270"/>
      <point x="1853" y="1270" type="qcurve" smooth="no"/>
    </contour>
  </outline>
</glyph>
<glyph name="backslash" format="1">
  <advance width="1012"/>
  <unicode hex="005c"/>
  <outline>
    <contour>
      <point x="389" y="0" type="line" smooth="no"/>
      <point x="47" y="1623" type="line" smooth="no"/>
      <point x="621" y="1623" type="line" smooth="no"/>
      <point x="962" y="0" type="line" smooth="no"/>
    </contour>
  </outline>
</glyph>
<glyph name="grave" format="1">
  <advance width="1016"/>
  <unicode hex="0060"/>
  <outline>
    <contour>
      <point x="281" y="1708" type="line" smooth="no"/>
      <point x="755" y="1271" type="line" smooth="no"/>
      <point x="651" y="1130" type="line" smooth="no"/>
      <point x="97" y="1443" type="line" smooth="no"/>
    </contour>
  </outline>
</glyph>
<glyph name="g" format="1">
  <advance width="1432"/>
  <unicode hex="0067"/>
  <outline>
    <contour>
      <point x="587" y="-389" type="qcurve" smooth="yes"/>
      <point x="1281" y="-389"/>
      <point x="1281" y="135" type="qcurve" smooth="yes"/>
      <point x="1281" y="761" type="line" smooth="no"/>
      <point x="1368" y="761" type="line" smooth="no"/>
      <point x="1368" y="1072" type="line" smooth="no"/>
      <point x="915" y="1072" type="line" smooth="no"/>
      <point x="882" y="997" type="line" smooth="no"/>
      <point x="709" y="1090"/>
      <point x="557" y="1090" type="qcurve" smooth="yes"/>
      <point x="418" y="1090"/>
      <point x="191" y="933"/>
      <point x="68" y="686"/>
      <point x="68" y="548" type="qcurve" smooth="yes"/>
      <point x="68" y="445"/>
      <point x="131" y="259"/>
      <point x="249" y="114"/>
      <point x="433" y="28"/>
      <point x="545" y="28" type="qcurve" smooth="yes"/>
      <point x="622" y="28"/>
      <point x="774" y="75"/>
      <point x="832" y="117" type="qcurve" smooth="no"/>
      <point x="832" y="53"/>
      <point x="798" y="-29"/>
      <point x="723" y="-72"/>
      <point x="632" y="-87"/>
      <point x="563" y="-87" type="qcurve" smooth="yes"/>
      <point x="385" y="-87"/>
      <point x="199" y="-19" type="qcurve" smooth="no"/>
      <point x="199" y="-328" type="line" smooth="no"/>
      <point x="212" y="-335"/>
      <point x="267" y="-355"/>
      <point x="468" y="-389"/>
    </contour>
    <contour>
      <point x="551" y="532" type="qcurve" smooth="yes"/>
      <point x="551" y="593"/>
      <point x="574" y="690"/>
      <point x="638" y="760"/>
      <point x="688" y="760" type="qcurve" smooth="yes"/>
      <point x="736" y="760"/>
      <point x="804" y="683"/>
      <point x="831" y="580"/>
      <point x="831" y="523" type="qcurve" smooth="yes"/>
      <point x="831" y="486"/>
      <point x="816" y="412"/>
      <point x="786" y="343"/>
      <point x="731" y="299"/>
      <point x="696" y="299" type="qcurve" smooth="yes"/>
      <point x="643" y="299"/>
      <point x="575" y="373"/>
      <point x="551" y="472"/>
    </contour>
  </outline>
</glyph>
<glyph name="k" format="1">
  <advance width="1427"/>
  <unicode hex="006b"/>
  <outline>
    <contour>
      <point x="936" y="0" type="line" smooth="no"/>
      <point x="1389" y="0" type="line" smooth="no"/>
      <point x="1389" y="305" type="line" smooth="no"/>
      <point x="1274" y="305" type="line" smooth="no"/>
      <point x="1047" y="618" type="line" smooth="no"/>
      <point x="1047" y="644" type="line" smooth="no"/>
      <point x="1190" y="761" type="line" smooth="no"/>
      <point x="1341" y="761" type="line" smooth="no"/>
      <point x="1341" y="1072" type="line" smooth="no"/>
      <point x="757" y="1072" type="line" smooth="no"/>
      <point x="757" y="761" type="line" smooth="no"/>
      <point x="852" y="761" type="line" smooth="no"/>
      <point x="651" y="587" type="line" smooth="no"/>
      <point x="651" y="1634" type="line" smooth="no"/>
      <point x="73" y="1634" type="line" smooth="no"/>
      <point x="73" y="1330" type="line" smooth="no"/>
      <point x="157" y="1330" type="line" smooth="no"/>
      <point x="157" y="305" type="line" smooth="no"/>
      <point x="74" y="305" type="line" smooth="no"/>
      <point x="74" y="0" type="line" smooth="no"/>
      <point x="651" y="0" type="line" smooth="no"/>
      <point x="651" y="438" type="line" smooth="no"/>
    </contour>
  </outline>
</glyph>
<glyph name="t" format="1">
  <advance width="852"/>
  <unicode hex="0074"/>
  <outline>
    <contour>
      <point x="848" y="348" type="line" smooth="no"/>
      <point x="785" y="334"/>
      <point x="740" y="334" type="qcurve" smooth="yes"/>
      <point x="684" y="334"/>
      <point x="642" y="399"/>
      <point x="642" y="438" type="qcurve" smooth="yes"/>
      <point x="643" y="761" type="line" smooth="no"/>
      <point x="795" y="761" type="line" smooth="no"/>
      <point x="795" y="1072" type="line" smooth="no"/>
      <point x="643" y="1072" type="line" smooth="no"/>
      <point x="643" y="1406" type="line" smooth="no"/>
      <point x="156" y="1301" type="line" smooth="no"/>
      <point x="156" y="1072" type="line" smooth="no"/>
      <point x="53" y="1072" type="line" smooth="no"/>
      <point x="53" y="761" type="line" smooth="no"/>
      <point x="161" y="761" type="line" smooth="no"/>
      <point x="160" y="385" type="line" smooth="yes"/>
      <point x="158" y="-18"/>
      <point x="540" y="-18" type="qcurve" smooth="yes"/>
      <point x="620" y="-18"/>
      <point x="774" y="15"/>
      <point x="811" y="32" type="qcurve" smooth="yes"/>
      <point x="848" y="49" type="line" smooth="no"/>
    </contour>
  </outline>
</glyph>
<glyph name="w" format="1">
  <advance width="2017"/>
  <unicode hex="0077"/>
  <outline>
    <contour>
      <point x="828" y="0" type="line" smooth="no"/>
      <point x="979" y="430" type="line" smooth="no"/>
      <point x="1109" y="0" type="line" smooth="no"/>
      <point x="1584" y="0" type="line" smooth="no"/>
      <point x="1737" y="483" type="line" smooth="yes"/>
      <point x="1764" y="578"/>
      <point x="1777" y="619"/>
      <point x="1801" y="679"/>
      <point x="1827" y="712"/>
      <point x="1866" y="746"/>
      <point x="1919" y="761"/>
      <point x="1952" y="761" type="qcurve" smooth="no"/>
      <point x="1952" y="1072" type="line" smooth="no"/>
      <point x="1395" y="1072" type="line" smooth="no"/>
      <point x="1395" y="761" type="line" smooth="no"/>
      <point x="1407" y="761"/>
      <point x="1424" y="760"/>
      <point x="1449" y="759"/>
      <point x="1465" y="754"/>
      <point x="1485" y="747"/>
      <point x="1495" y="735"/>
      <point x="1503" y="719"/>
      <point x="1503" y="696"/>
      <point x="1499" y="682" type="qcurve" smooth="yes"/>
      <point x="1414" y="380" type="line" smooth="no"/>
      <point x="1395" y="430"/>
      <point x="1241" y="924" type="line" smooth="yes"/>
      <point x="1196" y="1072" type="line" smooth="no"/>
      <point x="930" y="1072" type="line" smooth="no"/>
      <point x="720" y="392" type="line" smooth="no"/>
      <point x="607" y="761" type="line" smooth="no"/>
      <point x="721" y="761" type="line" smooth="no"/>
      <point x="721" y="1072" type="line" smooth="no"/>
      <point x="57" y="1072" type="line" smooth="no"/>
      <point x="57" y="761" type="line" smooth="no"/>
      <point x="126" y="761" type="line" smooth="no"/>
      <point x="384" y="0" type="line" smooth="no"/>
    </contour>
  </outline>
</glyph>
<glyph name="section" format="1">
  <advance width="1059"/>
  <unicode hex="00a7"/>
  <outline>
    <contour>
      <point x="64" y="837" type="qcurve" smooth="yes"/>
      <point x="64" y="779"/>
      <point x="122" y="673"/>
      <point x="215" y="593"/>
      <point x="326" y="520"/>
      <point x="438" y="456"/>
      <point x="531" y="394"/>
      <point x="589" y="323"/>
      <point x="589" y="287" type="qcurve" smooth="yes"/>
      <point x="589" y="249"/>
      <point x="535" y="209"/>
      <point x="501" y="209" type="qcurve" smooth="yes"/>
      <point x="431" y="209"/>
      <point x="333" y="311"/>
      <point x="321" y="379" type="qcurve" smooth="no"/>
      <point x="100" y="379" type="line" smooth="no"/>
      <point x="100" y="1" type="line" smooth="no"/>
      <point x="270" y="1" type="line" smooth="no"/>
      <point x="306" y="68" type="line" smooth="no"/>
      <point x="358" y="15"/>
      <point x="499" y="-18"/>
      <point x="594" y="-18" type="qcurve" smooth="yes"/>
      <point x="744" y="-18"/>
      <point x="950" y="175"/>
      <point x="950" y="296" type="qcurve" smooth="yes"/>
      <point x="950" y="457"/>
      <point x="789" y="555" type="qcurve" smooth="no"/>
      <point x="889" y="585"/>
      <point x="1001" y="751"/>
      <point x="1001" y="855" type="qcurve" smooth="yes"/>
      <point x="1001" y="915"/>
      <point x="944" y="1024"/>
      <point x="852" y="1105"/>
      <point x="742" y="1177"/>
      <point x="540" y="1291"/>
      <point x="483" y="1349"/>
      <point x="483" y="1377" type="qcurve" smooth="yes"/>
      <point x="483" y="1419"/>
      <point x="534" y="1466"/>
      <point x="566" y="1466" type="qcurve" smooth="yes"/>
      <point x="595" y="1466"/>
      <point x="652" y="1427"/>
      <point x="669" y="1395" type="qcurve" smooth="no"/>
      <point x="712" y="1300" type="line" smooth="no"/>
      <point x="913" y="1300" type="line" smooth="no"/>
      <point x="913" y="1623" type="line" smooth="no"/>
      <point x="745" y="1623" type="line" smooth="no"/>
      <point x="718" y="1572" type="line" smooth="no"/>
      <point x="715" y="1575"/>
      <point x="702" y="1584"/>
      <point x="655" y="1606"/>
      <point x="600" y="1624"/>
      <point x="506" y="1638"/>
      <point x="454" y="1638" type="qcurve" smooth="yes"/>
      <point x="306" y="1638"/>
      <point x="103" y="1474"/>
      <point x="103" y="1356" type="qcurve" smooth="yes"/>
      <point x="103" y="1216"/>
      <point x="268" y="1097" type="qcurve" smooth="no"/>
      <point x="176" y="1064"/>
      <point x="64" y="922"/>
    </contour>
    <contour>
      <point x="485" y="988" type="qcurve" smooth="no"/>
      <point x="579" y="960"/>
      <point x="712" y="870"/>
      <point x="712" y="821" type="qcurve" smooth="yes"/>
      <point x="712" y="744"/>
      <point x="626" y="689" type="qcurve" smooth="no"/>
      <point x="520" y="732"/>
      <point x="383" y="830"/>
      <point x="383" y="878" type="qcurve" smooth="yes"/>
      <point x="383" y="938"/>
    </contour>
  </outline>
</glyph>
<glyph name="plusminus" format="1">
  <advance width="791"/>
  <unicode hex="00b1"/>
  <outline>
    <contour>
      <point x="70" y="223" type="line" smooth="no"/>
      <point x="70" y="-1" type="line" smooth="no"/>
      <point x="717" y="-1" type="line" smooth="no"/>
      <point x="717" y="223" type="line" smooth="no"/>
    </contour>
    <contour>
      <point x="40" y="517" type="line" smooth="no"/>
      <point x="272" y="517" type="line" smooth="no"/>
      <point x="272" y="278" type="line" smooth="no"/>
      <point x="527" y="278" type="line" smooth="no"/>
      <point x="527" y="517" type="line" smooth="no"/>
      <point x="752" y="517" type="line" smooth="no"/>
      <point x="752" y="762" type="line" smooth="no"/>
      <point x="527" y="762" type="line" smooth="no"/>
      <point x="527" y="1031" type="line" smooth="no"/>
      <point x="272" y="1031" type="line" smooth="no"/>
      <point x="272" y="762" type="line" smooth="no"/>
      <point x="40" y="762" type="line" smooth="no"/>
    </contour>
  </outline>
</glyph>
<glyph name="uni00B5" format="1">
  <advance width="1468"/>
  <unicode hex="00b5"/>
  <outline>
    <contour>
      <point x="827" y="0" type="line" smooth="no"/>
      <point x="1397" y="0" type="line" smooth="no"/>
      <point x="1397" y="305" type="line" smooth="no"/>
      <point x="1321" y="305" type="line" smooth="no"/>
      <point x="1321" y="1072" type="line" smooth="no"/>
      <point x="746" y="1072" type="line" smooth="no"/>
      <point x="746" y="761" type="line" smooth="no"/>
      <point x="827" y="761" type="line" smooth="no"/>
      <point x="827" y="438" type="line" smooth="yes"/>
      <point x="827" y="387"/>
      <point x="770" y="318"/>
      <point x="723" y="318" type="qcurve" smooth="yes"/>
      <point x="687" y="318"/>
      <point x="633" y="385"/>
      <point x="633" y="438" type="qcurve" smooth="yes"/>
      <point x="633" y="1072" type="line" smooth="no"/>
      <point x="59" y="1072" type="line" smooth="no"/>
      <point x="59" y="761" type="line" smooth="no"/>
      <point x="139" y="761" type="line" smooth="no"/>
      <point x="139" y="385" type="line" smooth="yes"/>
      <point x="139" y="-18"/>
      <point x="469" y="-18" type="qcurve" smooth="yes"/>
      <point x="587" y="-18"/>
      <point x="772" y="71"/>
      <point x="827" y="156" type="qcurve" smooth="no"/>
    </contour>
  </outline>
</glyph>
<glyph name="cedilla" format="1">
  <advance width="502"/>
  <unicode hex="00b8"/>
  <outline>
    <contour>
      <point x="147" y="-119" type="line" smooth="no"/>
      <point x="193" y="-145"/>
      <point x="257" y="-231"/>
      <point x="257" y="-271" type="qcurve" smooth="yes"/>
      <point x="257" y="-315"/>
      <point x="167" y="-371"/>
      <point x="70" y="-372" type="qcurve" smooth="no"/>
      <point x="70" y="-485" type="line" smooth="no"/>
      <point x="91" y="-485" type="line" smooth="yes"/>
      <point x="243" y="-485"/>
      <point x="460" y="-367"/>
      <point x="460" y="-285" type="qcurve" smooth="yes"/>
      <point x="460" y="-196"/>
      <point x="327" y="-119" type="qcurve" smooth="no"/>
      <point x="327" y="0" type="line" smooth="no"/>
      <point x="147" y="0" type="line" smooth="no"/>
    </contour>
  </outline>
</glyph>
<glyph name="ordmasculine" format="1">
  <advance width="1358"/>
  <unicode hex="00ba"/>
  <outline>
    <contour>
      <point x="309" y="270"/>
      <point x="64" y="493"/>
      <point x="64" y="688" type="qcurve" smooth="yes"/>
      <point x="64" y="881"/>
      <point x="303" y="1091"/>
      <point x="510" y="1091" type="qcurve" smooth="yes"/>
      <point x="718" y="1091"/>
      <point x="956" y="881"/>
      <point x="956" y="688" type="qcurve" smooth="yes"/>
      <point x="956" y="493"/>
      <point x="711" y="270"/>
    </contour>
    <contour>
      <point x="477" y="860"/>
      <point x="435" y="832"/>
      <point x="415" y="777"/>
      <point x="409" y="724"/>
      <point x="409" y="686" type="qcurve" smooth="yes"/>
      <point x="409" y="501"/>
      <point x="510" y="501" type="qcurve" smooth="yes"/>
      <point x="612" y="501"/>
      <point x="612" y="686" type="qcurve" smooth="yes"/>
      <point x="612" y="724"/>
      <point x="605" y="777"/>
      <point x="586" y="832"/>
      <point x="543" y="860"/>
    </contour>
  </outline>
</glyph>
<glyph name="Aring" format="1">
  <advance width="1763"/>
  <unicode hex="00c5"/>
  <outline>
    <contour>
      <point x="1273" y="1623" type="line" smooth="no"/>
      <point x="279" y="1623" type="line" smooth="no"/>
      <point x="279" y="1270" type="line" smooth="no"/>
      <point x="491" y="1270" type="line" smooth="no"/>
      <point x="319" y="591" type="line" smooth="yes"/>
      <point x="291.645" y="486.407"/>
      <point x="280.789" y="461.743" type="qcurve" smooth="yes"/>
      <point x="247.56" y="386.246"/>
      <point x="169.649" y="367.158" type="qcurve" smooth="yes"/>
      <point x="136.353" y="359"/>
      <point x="92" y="359" type="qcurve" smooth="no"/>
      <point x="92" y="0" type="line" smooth="no"/>
      <point x="770" y="0" type="line" smooth="no"/>
      <point x="770" y="359" type="line" smooth="no"/>
      <point x="686" y="359" type="line" smooth="yes"/>
      <point x="665" y="359"/>
      <point x="643" y="431"/>
      <point x="643" y="459" type="qcurve" smooth="no"/>
      <point x="644" y="480"/>
      <point x="646" y="502"/>
      <point x="660" y="523"/>
      <point x="673" y="523" type="qcurve" smooth="yes"/>
      <point x="948" y="523" type="line" smooth="yes"/>
      <point x="1015" y="523"/>
      <point x="1015" y="359" type="qcurve" smooth="no"/>
      <point x="895" y="359" type="line" smooth="no"/>
      <point x="896" y="0" type="line" smooth="no"/>
      <point x="1722" y="0" type="line" smooth="no"/>
      <point x="1722" y="359" type="line" smooth="no"/>
      <point x="1636" y="359" type="line" smooth="yes"/>
      <point x="1621" y="359"/>
      <point x="1599" y="384"/>
      <point x="1588" y="416"/>
      <point x="1580" y="447" type="qcurve" smooth="yes"/>
    </contour>
    <contour>
      <point x="700" y="773" type="line" smooth="no"/>
      <point x="812" y="1281" type="line" smooth="no"/>
      <point x="929" y="773" type="line" smooth="no"/>
    </contour>
    <contour>
      <point x="877" y="1802" type="qcurve" smooth="yes"/>
      <point x="802" y="1802"/>
      <point x="716" y="1890"/>
      <point x="716" y="1950" type="qcurve" smooth="yes"/>
      <point x="716" y="2009"/>
      <point x="801" y="2095"/>
      <point x="877" y="2095" type="qcurve" smooth="yes"/>
      <point x="955" y="2095"/>
      <point x="1042" y="2009"/>
      <point x="1042" y="1950" type="qcurve" smooth="yes"/>
      <point x="1042" y="1890"/>
      <point x="954" y="1802"/>
    </contour>
    <contour>
      <point x="877" y="1700" type="qcurve" smooth="yes"/>
      <point x="1008" y="1700"/>
      <point x="1157" y="1850"/>
      <point x="1157" y="1951" type="qcurve" smooth="yes"/>
      <point x="1157" y="2051"/>
      <point x="1010" y="2195"/>
      <point x="877" y="2195" type="qcurve" smooth="yes"/>
      <point x="748" y="2195"/>
      <point x="606" y="2050"/>
      <point x="606" y="1951" type="qcurve" smooth="yes"/>
      <point x="606" y="1850"/>
      <point x="750" y="1700"/>
    </contour>
  </outline>
</glyph>
<glyph name="AE" format="1">
  <advance width="3184"/>
  <unicode hex="00c6"/>
  <outline>
    <contour>
      <point x="2004" y="970" type="line" smooth="no"/>
      <point x="2004" y="1623" type="line" smooth="no"/>
      <point x="434" y="1623" type="line" smooth="no"/>
      <point x="363" y="1274" type="line" smooth="no"/>
      <point x="575" y="1274" type="line" smooth="no"/>
      <point x="253" y="608" type="line" smooth="yes"/>
      <point x="221" y="534"/>
      <point x="210" y="511"/>
      <point x="183" y="459"/>
      <point x="133" y="399"/>
      <point x="101" y="382"/>
      <point x="59" y="362"/>
      <point x="9" y="354"/>
      <point x="-21" y="354" type="qcurve" smooth="no"/>
      <point x="-21" y="-1" type="line" smooth="no"/>
      <point x="660" y="0" type="line" smooth="no"/>
      <point x="660" y="376" type="line" smooth="no"/>
      <point x="576" y="376" type="line" smooth="yes"/>
      <point x="555" y="376"/>
      <point x="546" y="459"/>
      <point x="552" y="476" type="qcurve" smooth="no"/>
      <point x="557" y="497"/>
      <point x="563" y="519"/>
      <point x="581" y="540"/>
      <point x="594" y="540" type="qcurve" smooth="yes"/>
      <point x="869" y="540" type="line" smooth="yes"/>
      <point x="937" y="540"/>
      <point x="905" y="376" type="qcurve" smooth="no"/>
      <point x="785" y="376" type="line" smooth="no"/>
      <point x="786" y="0" type="line" smooth="no"/>
      <point x="2015" y="0" type="line" smooth="no"/>
      <point x="2015" y="687" type="line" smooth="no"/>
      <point x="1742" y="687" type="line" smooth="no"/>
      <point x="1679" y="420" type="line" smooth="no"/>
      <point x="1666" y="350" type="line" smooth="no"/>
      <point x="1447" y="350" type="line" smooth="no"/>
      <point x="1447" y="636" type="line" smooth="no"/>
      <point x="1652" y="636" type="line" smooth="no"/>
      <point x="1652" y="988" type="line" smooth="no"/>
      <point x="1447" y="988" type="line" smooth="no"/>
      <point x="1447" y="1271" type="line" smooth="no"/>
      <point x="1660" y="1271" type="line" smooth="no"/>
      <point x="1736" y="969" type="line" smooth="no"/>
    </contour>
    <contour>
      <point x="658" y="771" type="line" smooth="no"/>
      <point x="898" y="1292" type="line" smooth="no"/>
      <point x="897" y="771" type="line" smooth="no"/>
    </contour>
  </outline>
</glyph>
<glyph name="Eacute" format="1">
  <advance width="1421"/>
  <unicode hex="00c9"/>
  <outline>
    <contour>
      <point x="1341" y="969" type="line" smooth="no"/>
      <point x="1341" y="1623" type="line" smooth="no"/>
      <point x="73" y="1623" type="line" smooth="no"/>
      <point x="73" y="1270" type="line" smooth="no"/>
      <point x="231" y="1270" type="line" smooth="no"/>
      <point x="231" y="359" type="line" smooth="no"/>
      <point x="73" y="359" type="line" smooth="no"/>
      <point x="73" y="0" type="line" smooth="no"/>
      <point x="1352" y="0" type="line" smooth="no"/>
      <point x="1352" y="687" type="line" smooth="no"/>
      <point x="1079" y="687" type="line" smooth="no"/>
      <point x="1016" y="420" type="line" smooth="no"/>
      <point x="1003" y="359" type="line" smooth="no"/>
      <point x="784" y="359" type="line" smooth="no"/>
      <point x="784" y="636" type="line" smooth="no"/>
      <point x="989" y="636" type="line" smooth="no"/>
      <point x="989" y="988" type="line" smooth="no"/>
      <point x="784" y="988" type="line" smooth="no"/>
      <point x="784" y="1270" type="line" smooth="no"/>
      <point x="997" y="1270" type="line" smooth="no"/>
      <point x="1073" y="968" type="line" smooth="no"/>
    </contour>
    <contour>
      <point x="855" y="2270" type="line" smooth="no"/>
      <point x="381" y="1833" type="line" smooth="no"/>
      <point x="485" y="1692" type="line" smooth="no"/>
      <point x="1039" y="2005" type="line" smooth="no"/>
    </contour>
  </outline>
</glyph>
<glyph name="Edieresis" format="1">
  <advance width="1421"/>
  <unicode hex="00cb"/>
  <outline>
    <contour>
      <point x="1341" y="969" type="line" smooth="no"/>
      <point x="1341" y="1623" type="line" smooth="no"/>
      <point x="73" y="1623" type="line" smooth="no"/>
      <point x="73" y="1270" type="line" smooth="no"/>
      <point x="231" y="1270" type="line" smooth="no"/>
      <point x="231" y="359" type="line" smooth="no"/>
      <point x="73" y="359" type="line" smooth="no"/>
      <point x="73" y="0" type="line" smooth="no"/>
      <point x="1352" y="0" type="line" smooth="no"/>
      <point x="1352" y="687" type="line" smooth="no"/>
      <point x="1079" y="687" type="line" smooth="no"/>
      <point x="1016" y="420" type="line" smooth="no"/>
      <point x="1003" y="359" type="line" smooth="no"/>
      <point x="784" y="359" type="line" smooth="no"/>
      <point x="784" y="636" type="line" smooth="no"/>
      <point x="989" y="636" type="line" smooth="no"/>
      <point x="989" y="988" type="line" smooth="no"/>
      <point x="784" y="988" type="line" smooth="no"/>
      <point x="784" y="1270" type="line" smooth="no"/>
      <point x="997" y="1270" type="line" smooth="no"/>
      <point x="1073" y="968" type="line" smooth="no"/>
    </contour>
    <contour>
      <point x="628" y="1904" type="qcurve" smooth="yes"/>
      <point x="628" y="1796"/>
      <point x="495" y="1674"/>
      <point x="404" y="1674" type="qcurve" smooth="yes"/>
      <point x="311" y="1674"/>
      <point x="176" y="1797"/>
      <point x="176" y="1907" type="qcurve" smooth="yes"/>
      <point x="176" y="2014"/>
      <point x="310" y="2134"/>
      <point x="494" y="2134"/>
      <point x="628" y="2013"/>
    </contour>
    <contour>
      <point x="1245" y="1904" type="qcurve" smooth="yes"/>
      <point x="1245" y="1796"/>
      <point x="1112" y="1674"/>
      <point x="1021" y="1674" type="qcurve" smooth="yes"/>
      <point x="928" y="1674"/>
      <point x="793" y="1797"/>
      <point x="793" y="1907" type="qcurve" smooth="yes"/>
      <point x="793" y="2014"/>
      <point x="927" y="2134"/>
      <point x="1111" y="2134"/>
      <point x="1245" y="2013"/>
    </contour>
  </outline>
</glyph>
<glyph name="Ugrave" format="1">
  <advance width="1710"/>
  <unicode hex="00d9"/>
  <outline>
    <contour>
      <point x="1499" y="1270" type="line" smooth="no"/>
      <point x="1653" y="1270" type="line" smooth="no"/>
      <point x="1653" y="1622" type="line" smooth="no"/>
      <point x="999" y="1622" type="line" smooth="no"/>
      <point x="999" y="1270" type="line" smooth="no"/>
      <point x="1163" y="1270" type="line" smooth="no"/>
      <point x="1163" y="536" type="line" smooth="yes"/>
      <point x="1163" y="448"/>
      <point x="1059" y="346"/>
      <point x="967" y="346" type="qcurve" smooth="yes"/>
      <point x="915" y="346"/>
      <point x="838" y="390"/>
      <point x="797" y="465"/>
      <point x="778" y="551"/>
      <point x="778" y="600" type="qcurve" smooth="yes"/>
      <point x="778" y="1270" type="line" smooth="no"/>
      <point x="926" y="1270" type="line" smooth="no"/>
      <point x="926" y="1622" type="line" smooth="no"/>
      <point x="57" y="1622" type="line" smooth="no"/>
      <point x="57" y="1270" type="line" smooth="no"/>
      <point x="218" y="1270" type="line" smooth="no"/>
      <point x="218" y="704" type="line" smooth="yes"/>
      <point x="218" y="616"/>
      <point x="233" y="466"/>
      <point x="272" y="314"/>
      <point x="334" y="192"/>
      <point x="432" y="84"/>
      <point x="561" y="12"/>
      <point x="739" y="-29"/>
      <point x="848" y="-29" type="qcurve" smooth="yes"/>
      <point x="1019" y="-29"/>
      <point x="1315" y="107"/>
      <point x="1499" y="362"/>
      <point x="1499" y="520" type="qcurve" smooth="yes"/>
    </contour>
    <contour>
      <point x="710" y="2270" type="line" smooth="no"/>
      <point x="1184" y="1833" type="line" smooth="no"/>
      <point x="1080" y="1692" type="line" smooth="no"/>
      <point x="526" y="2005" type="line" smooth="no"/>
    </contour>
  </outline>
</glyph>
<glyph name="Udieresis" format="1">
  <advance width="1710"/>
  <unicode hex="00dc"/>
  <outline>
    <contour>
      <point x="1499" y="1270" type="line" smooth="no"/>
      <point x="1653" y="1270" type="line" smooth="no"/>
      <point x="1653" y="1622" type="line" smooth="no"/>
      <point x="999" y="1622" type="line" smooth="no"/>
      <point x="999" y="1270" type="line" smooth="no"/>
      <point x="1163" y="1270" type="line" smooth="no"/>
      <point x="1163" y="536" type="line" smooth="yes"/>
      <point x="1163" y="448"/>
      <point x="1059" y="346"/>
      <point x="967" y="346" type="qcurve" smooth="yes"/>
      <point x="915" y="346"/>
      <point x="838" y="390"/>
      <point x="797" y="465"/>
      <point x="778" y="551"/>
      <point x="778" y="600" type="qcurve" smooth="yes"/>
      <point x="778" y="1270" type="line" smooth="no"/>
      <point x="926" y="1270" type="line" smooth="no"/>
      <point x="926" y="1622" type="line" smooth="no"/>
      <point x="57" y="1622" type="line" smooth="no"/>
      <point x="57" y="1270" type="line" smooth="no"/>
      <point x="218" y="1270" type="line" smooth="no"/>
      <point x="218" y="704" type="line" smooth="yes"/>
      <point x="218" y="616"/>
      <point x="233" y="466"/>
      <point x="272" y="314"/>
      <point x="334" y="192"/>
      <point x="432" y="84"/>
      <point x="561" y="12"/>
      <point x="739" y="-29"/>
      <point x="848" y="-29" type="qcurve" smooth="yes"/>
      <point x="1019" y="-29"/>
      <point x="1315" y="107"/>
      <point x="1499" y="362"/>
      <point x="1499" y="520" type="qcurve" smooth="yes"/>
    </contour>
    <contour>
      <point x="772" y="1904" type="qcurve" smooth="yes"/>
      <point x="772" y="1796"/>
      <point x="639" y="1674"/>
      <point x="548" y="1674" type="qcurve" smooth="yes"/>
      <point x="455" y="1674"/>
      <point x="320" y="1797"/>
      <point x="320" y="1907" type="qcurve" smooth="yes"/>
      <point x="320" y="2014"/>
      <point x="454" y="2134"/>
      <point x="638" y="2134"/>
      <point x="772" y="2013"/>
    </contour>
    <contour>
      <point x="1389" y="1904" type="qcurve" smooth="yes"/>
      <point x="1389" y="1796"/>
      <point x="1256" y="1674"/>
      <point x="1165" y="1674" type="qcurve" smooth="yes"/>
      <point x="1072" y="1674"/>
      <point x="937" y="1797"/>
      <point x="937" y="1907" type="qcurve" smooth="yes"/>
      <point x="937" y="2014"/>
      <point x="1071" y="2134"/>
      <point x="1255" y="2134"/>
      <point x="1389" y="2013"/>
    </contour>
  </outline>
</glyph>
<glyph name="ccedilla" format="1">
  <advance width="1122"/>
  <unicode hex="00e7"/>
  <outline>
    <contour>
      <point x="54" y="546" type="qcurve" smooth="yes"/>
      <point x="54" y="368"/>
      <point x="201" y="109"/>
      <point x="448" y="-18"/>
      <point x="606" y="-18" type="qcurve" smooth="yes"/>
      <point x="732" y="-18"/>
      <point x="980" y="55"/>
      <point x="1049" y="124" type="qcurve" smooth="no"/>
      <point x="1049" y="425" type="line" smooth="no"/>
      <point x="809" y="425" type="line" smooth="no"/>
      <point x="808" y="420"/>
      <point x="805" y="402"/>
      <point x="788" y="357"/>
      <point x="763" y="323"/>
      <point x="714" y="295"/>
      <point x="682" y="295" type="qcurve" smooth="yes"/>
      <point x="639" y="295"/>
      <point x="576" y="335"/>
      <point x="542" y="401"/>
      <point x="527" y="473"/>
      <point x="527" y="513" type="qcurve" smooth="yes"/>
      <point x="527" y="648"/>
      <point x="619" y="778"/>
      <point x="682" y="778" type="qcurve" smooth="yes"/>
      <point x="733" y="778"/>
      <point x="805" y="694"/>
      <point x="805" y="628" type="qcurve" smooth="no"/>
      <point x="1047" y="628" type="line" smooth="no"/>
      <point x="1047" y="1072" type="line" smooth="no"/>
      <point x="872" y="1072" type="line" smooth="no"/>
      <point x="831" y="995" type="line" smooth="no"/>
      <point x="710" y="1092"/>
      <point x="573" y="1092" type="qcurve" smooth="yes"/>
      <point x="456" y="1092"/>
      <point x="258" y="1003"/>
      <point x="127" y="853"/>
      <point x="54" y="655"/>
    </contour>
    <contour>
      <point x="485" y="-119" type="line" smooth="no"/>
      <point x="531" y="-145"/>
      <point x="595" y="-231"/>
      <point x="595" y="-271" type="qcurve" smooth="yes"/>
      <point x="595" y="-315"/>
      <point x="505" y="-371"/>
      <point x="408" y="-372" type="qcurve" smooth="no"/>
      <point x="408" y="-485" type="line" smooth="no"/>
      <point x="429" y="-485" type="line" smooth="yes"/>
      <point x="581" y="-485"/>
      <point x="798" y="-367"/>
      <point x="798" y="-285" type="qcurve" smooth="yes"/>
      <point x="798" y="-196"/>
      <point x="665" y="-119" type="qcurve" smooth="no"/>
      <point x="665" y="0" type="line" smooth="no"/>
      <point x="485" y="0" type="line" smooth="no"/>
    </contour>
  </outline>
</glyph>
<glyph name="igrave" format="1">
  <advance width="774"/>
  <unicode hex="00ec"/>
  <outline>
    <contour>
      <point x="242" y="1708" type="line" smooth="no"/>
      <point x="716" y="1271" type="line" smooth="no"/>
      <point x="612" y="1130" type="line" smooth="no"/>
      <point x="58" y="1443" type="line" smooth="no"/>
    </contour>
    <contour>
      <point x="633" y="1072" type="line" smooth="no"/>
      <point x="63" y="1072" type="line" smooth="no"/>
      <point x="63" y="747" type="line" smooth="no"/>
      <point x="152" y="747" type="line" smooth="no"/>
      <point x="152" y="299" type="line" smooth="no"/>
      <point x="70" y="299" type="line" smooth="no"/>
      <point x="70" y="0" type="line" smooth="no"/>
      <point x="717" y="0" type="line" smooth="no"/>
      <point x="717" y="299" type="line" smooth="no"/>
      <point x="633" y="299" type="line" smooth="no"/>
    </contour>
  </outline>
</glyph>
<glyph name="ocircumflex" format="1">
  <advance width="1358"/>
  <unicode hex="00f4"/>
  <outline>
    <contour>
      <point x="506" y="-18"/>
      <point x="235" y="114"/>
      <point x="82" y="372"/>
      <point x="82" y="547" type="qcurve" smooth="yes"/>
      <point x="82" y="807"/>
      <point x="404" y="1091"/>
      <point x="964" y="1091"/>
      <point x="1286" y="807"/>
      <point x="1286" y="547" type="qcurve" smooth="yes"/>
      <point x="1286" y="372"/>
      <point x="1133" y="114"/>
      <point x="862" y="-18"/>
    </contour>
    <contour>
      <point x="640" y="779"/>
      <point x="582" y="741"/>
      <point x="556" y="667"/>
      <point x="547" y="596"/>
      <point x="547" y="545" type="qcurve" smooth="yes"/>
      <point x="547" y="294"/>
      <point x="821" y="294"/>
      <point x="821" y="545" type="qcurve" smooth="yes"/>
      <point x="821" y="596"/>
      <point x="812" y="667"/>
      <point x="786" y="741"/>
      <point x="728" y="779"/>
    </contour>
    <contour>
      <point x="543" y="1601" type="line" smooth="no"/>
      <point x="270" y="1224" type="line" smooth="no"/>
      <point x="424" y="1123" type="line" smooth="no"/>
      <point x="679" y="1368" type="line" smooth="no"/>
      <point x="934" y="1123" type="line" smooth="no"/>
      <point x="1088" y="1224" type="line" smooth="no"/>
      <point x="814" y="1600" type="line" smooth="no"/>
    </contour>
  </outline>
</glyph>
<glyph name="otilde" format="1">
  <advance width="1358"/>
  <unicode hex="00f5"/>
  <outline>
    <contour>
      <point x="506" y="-18"/>
      <point x="235" y="114"/>
      <point x="82" y="372"/>
      <point x="82" y="547" type="qcurve" smooth="yes"/>
      <point x="82" y="807"/>
      <point x="404" y="1091"/>
      <point x="964" y="1091"/>
      <point x="1286" y="807"/>
      <point x="1286" y="547" type="qcurve" smooth="yes"/>
      <point x="1286" y="372"/>
      <point x="1133" y="114"/>
      <point x="862" y="-18"/>
    </contour>
    <contour>
      <point x="640" y="779"/>
      <point x="582" y="741"/>
      <point x="556" y="667"/>
      <point x="547" y="596"/>
      <point x="547" y="545" type="qcurve" smooth="yes"/>
      <point x="547" y="294"/>
      <point x="821" y="294"/>
      <point x="821" y="545" type="qcurve" smooth="yes"/>
      <point x="821" y="596"/>
      <point x="812" y="667"/>
      <point x="786" y="741"/>
      <point x="728" y="779"/>
    </contour>
    <contour>
      <point x="852" y="1523" type="qcurve" smooth="yes"/>
      <point x="896" y="1523"/>
      <point x="968" y="1485"/>
      <point x="1020" y="1416"/>
      <point x="1059" y="1348"/>
      <point x="1106" y="1258"/>
      <point x="1124" y="1232" type="qcurve" smooth="no"/>
      <point x="1011" y="1158" type="line" smooth="no"/>
      <point x="938" y="1228"/>
      <point x="883" y="1266"/>
      <point x="864" y="1266" type="qcurve" smooth="yes"/>
      <point x="819" y="1266"/>
      <point x="562" y="1145"/>
      <point x="507" y="1145" type="qcurve" smooth="yes"/>
      <point x="462" y="1145"/>
      <point x="390" y="1182"/>
      <point x="337" y="1251"/>
      <point x="251" y="1409"/>
      <point x="233" y="1435" type="qcurve" smooth="no"/>
      <point x="347" y="1510" type="line" smooth="no"/>
      <point x="423" y="1437"/>
      <point x="479" y="1398"/>
      <point x="497" y="1398" type="qcurve" smooth="yes"/>
      <point x="533" y="1398"/>
      <point x="627" y="1437"/>
      <point x="705" y="1484"/>
      <point x="807" y="1523"/>
    </contour>
  </outline>
</glyph>
<glyph name="yacute" format="1">
  <advance width="1505"/>
  <unicode hex="00fd"/>
  <outline>
    <contour>
      <point x="425" y="-377" type="line" smooth="no"/>
      <point x="1116" y="-377" type="line" smooth="no"/>
      <point x="1116" y="-82" type="line" smooth="no"/>
      <point x="884" y="-82" type="line" smooth="no"/>
      <point x="1262" y="628" type="line" smooth="yes"/>
      <point x="1283" y="668"/>
      <point x="1303" y="701"/>
      <point x="1345" y="745"/>
      <point x="1399" y="761"/>
      <point x="1438" y="761" type="qcurve" smooth="no"/>
      <point x="1438" y="1072" type="line" smooth="no"/>
      <point x="858" y="1072" type="line" smooth="no"/>
      <point x="858" y="761" type="line" smooth="no"/>
      <point x="928.351" y="761"/>
      <point x="947.594" y="750.853" type="qcurve" smooth="yes"/>
      <point x="984.923" y="731.167"/>
      <point x="953" y="662" type="qcurve" smooth="yes"/>
      <point x="856" y="454" type="line" smooth="no"/>
      <point x="680" y="761" type="line" smooth="no"/>
      <point x="748" y="761" type="line" smooth="no"/>
      <point x="748" y="1072" type="line" smooth="no"/>
      <point x="68" y="1072" type="line" smooth="no"/>
      <point x="68" y="761" type="line" smooth="no"/>
      <point x="156" y="761" type="line" smooth="no"/>
      <point x="622" y="31" type="line" smooth="no"/>
    </contour>
    <contour>
      <point x="897" y="1708" type="line" smooth="no"/>
      <point x="423" y="1271" type="line" smooth="no"/>
      <point x="527" y="1130" type="line" smooth="no"/>
      <point x="1081" y="1443" type="line" smooth="no"/>
    </contour>
  </outline>
</glyph>
<glyph name="thorn" format="1">
  <advance width="1442"/>
  <unicode hex="00fe"/>
  <outline>
    <contour>
      <point x="727" y="-397" type="line" smooth="no"/>
      <point x="727" y="-96" type="line" smooth="no"/>
      <point x="616" y="-96" type="line" smooth="no"/>
      <point x="616" y="119" type="line" smooth="no"/>
      <point x="659" y="66"/>
      <point x="824" y="-9"/>
      <point x="927" y="-9" type="qcurve" smooth="yes"/>
      <point x="1036" y="-9"/>
      <point x="1213" y="85"/>
      <point x="1322" y="242"/>
      <point x="1380" y="436"/>
      <point x="1380" y="541" type="qcurve" smooth="yes"/>
      <point x="1380" y="648"/>
      <point x="1320" y="841"/>
      <point x="1209" y="993"/>
      <point x="1035" y="1083"/>
      <point x="929" y="1083" type="qcurve" smooth="yes"/>
      <point x="837" y="1083"/>
      <point x="701" y="1023"/>
      <point x="637" y="956" type="qcurve" smooth="no"/>
      <point x="627" y="956" type="line" smooth="no"/>
      <point x="627" y="1447" type="line" smooth="no"/>
      <point x="63" y="1447" type="line" smooth="no"/>
      <point x="63" y="1141" type="line" smooth="no"/>
      <point x="137" y="1141" type="line" smooth="no"/>
      <point x="137" y="-94" type="line" smooth="no"/>
      <point x="53" y="-94" type="line" smooth="no"/>
      <point x="53" y="-398" type="line" smooth="no"/>
    </contour>
    <contour>
      <point x="616" y="417" type="line" smooth="no"/>
      <point x="616" y="645" type="line" smooth="no"/>
      <point x="617" y="649"/>
      <point x="621" y="661"/>
      <point x="641" y="694"/>
      <point x="668" y="719"/>
      <point x="717" y="739"/>
      <point x="748" y="739" type="qcurve" smooth="yes"/>
      <point x="911" y="739"/>
      <point x="911" y="545" type="qcurve" smooth="yes"/>
      <point x="911" y="501"/>
      <point x="896" y="424"/>
      <point x="861" y="352"/>
      <point x="793" y="310"/>
      <point x="745" y="310" type="qcurve" smooth="yes"/>
      <point x="713" y="310"/>
      <point x="663" y="332"/>
      <point x="637" y="364"/>
      <point x="620" y="395"/>
      <point x="618" y="406" type="qcurve" smooth="yes"/>
    </contour>
  </outline>
</glyph>
<glyph name="ydieresis" format="1">
  <advance width="1505"/>
  <unicode hex="00ff"/>
  <outline>
    <contour>
      <point x="425" y="-377" type="line" smooth="no"/>
      <point x="1116" y="-377" type="line" smooth="no"/>
      <point x="1116" y="-82" type="line" smooth="no"/>
      <point x="884" y="-82" type="line" smooth="no"/>
      <point x="1262" y="628" type="line" smooth="yes"/>
      <point x="1283" y="668"/>
      <point x="1303" y="701"/>
      <point x="1345" y="745"/>
      <point x="1399" y="761"/>
      <point x="1438" y="761" type="qcurve" smooth="no"/>
      <point x="1438" y="1072" type="line" smooth="no"/>
      <point x="858" y="1072" type="line" smooth="no"/>
      <point x="858" y="761" type="line" smooth="no"/>
      <point x="928.351" y="761"/>
      <point x="947.594" y="750.853" type="qcurve" smooth="yes"/>
      <point x="984.923" y="731.167"/>
      <point x="953" y="662" type="qcurve" smooth="yes"/>
      <point x="856" y="454" type="line" smooth="no"/>
      <point x="680" y="761" type="line" smooth="no"/>
      <point x="748" y="761" type="line" smooth="no"/>
      <point x="748" y="1072" type="line" smooth="no"/>
      <point x="68" y="1072" type="line" smooth="no"/>
      <point x="68" y="761" type="line" smooth="no"/>
      <point x="156" y="761" type="line" smooth="no"/>
      <point x="622" y="31" type="line" smooth="no"/>
    </contour>
    <contour>
      <point x="670" y="1342" type="qcurve" smooth="yes"/>
      <point x="670" y="1234"/>
      <point x="537" y="1112"/>
      <point x="446" y="1112" type="qcurve" smooth="yes"/>
      <point x="353" y="1112"/>
      <point x="218" y="1235"/>
      <point x="218" y="1345" type="qcurve" smooth="yes"/>
      <point x="218" y="1452"/>
      <point x="352" y="1572"/>
      <point x="536" y="1572"/>
      <point x="670" y="1451"/>
    </contour>
    <contour>
      <point x="1287" y="1342" type="qcurve" smooth="yes"/>
      <point x="1287" y="1234"/>
      <point x="1154" y="1112"/>
      <point x="1063" y="1112" type="qcurve" smooth="yes"/>
      <point x="970" y="1112"/>
      <point x="835" y="1235"/>
      <point x="835" y="1345" type="qcurve" smooth="yes"/>
      <point x="835" y="1452"/>
      <point x="969" y="1572"/>
      <point x="1153" y="1572"/>
      <point x="1287" y="1451"/>
    </contour>
  </outline>
</glyph>
<glyph name="dotlessi" format="1">
  <advance width="774"/>
  <unicode hex="0131"/>
  <outline>
    <contour>
      <point x="633" y="1072" type="line" smooth="no"/>
      <point x="63" y="1072" type="line" smooth="no"/>
      <point x="63" y="747" type="line" smooth="no"/>
      <point x="152" y="747" type="line" smooth="no"/>
      <point x="152" y="299" type="line" smooth="no"/>
      <point x="70" y="299" type="line" smooth="no"/>
      <point x="70" y="0" type="line" smooth="no"/>
      <point x="717" y="0" type="line" smooth="no"/>
      <point x="717" y="299" type="line" smooth="no"/>
      <point x="633" y="299" type="line" smooth="no"/>
    </contour>
  </outline>
</glyph>
<glyph name="OE" format="1">
  <advance width="3190"/>
  <unicode hex="0152"/>
  <outline>
    <contour>
      <point x="2217" y="0" type="line" smooth="no"/>
      <point x="2217" y="687" type="line" smooth="no"/>
      <point x="1944" y="687" type="line" smooth="no"/>
      <point x="1881" y="420" type="line" smooth="no"/>
      <point x="1868" y="350" type="line" smooth="no"/>
      <point x="1649" y="350" type="line" smooth="no"/>
      <point x="1649" y="636" type="line" smooth="no"/>
      <point x="1854" y="636" type="line" smooth="no"/>
      <point x="1854" y="988" type="line" smooth="no"/>
      <point x="1649" y="988" type="line" smooth="no"/>
      <point x="1649" y="1258" type="line" smooth="no"/>
      <point x="1862" y="1258" type="line" smooth="no"/>
      <point x="1938" y="956" type="line" smooth="no"/>
      <point x="2206" y="957" type="line" smooth="no"/>
      <point x="2206" y="1610" type="line" smooth="no"/>
      <point x="891" y="1610" type="line" smooth="yes"/>
      <point x="645" y="1610"/>
      <point x="264" y="1403"/>
      <point x="57" y="1031"/>
      <point x="57" y="793" type="qcurve" smooth="yes"/>
      <point x="58" y="433"/>
      <point x="515" y="0"/>
      <point x="897" y="0" type="qcurve" smooth="yes"/>
    </contour>
    <contour>
      <point x="674" y="755" type="qcurve" smooth="yes"/>
      <point x="674" y="775"/>
      <point x="673.586" y="817.046" type="qcurve" smooth="no"/>
      <point x="671" y="870"/>
      <point x="676" y="977"/>
      <point x="683" y="1075"/>
      <point x="712" y="1159"/>
      <point x="756" y="1221"/>
      <point x="834" y="1257"/>
      <point x="886" y="1257" type="qcurve" smooth="yes"/>
      <point x="1096" y="1257" type="line" smooth="no"/>
      <point x="1096" y="350" type="line" smooth="no"/>
      <point x="897" y="350" type="line" smooth="yes"/>
      <point x="853" y="350"/>
      <point x="784" y="374"/>
      <point x="738" y="412"/>
      <point x="705" y="477"/>
      <point x="687" y="539"/>
      <point x="677" y="630"/>
      <point x="674" y="703"/>
    </contour>
  </outline>
</glyph>
<glyph name="Ydieresis" format="1">
  <advance width="1690"/>
  <unicode hex="0178"/>
  <outline>
    <contour>
      <point x="1632" y="1622" type="line" smooth="no"/>
      <point x="995" y="1622" type="line" smooth="no"/>
      <point x="995" y="1270" type="line" smooth="no"/>
      <point x="1068" y="1270"/>
      <point x="1094" y="1263"/>
      <point x="1109" y="1245"/>
      <point x="1112" y="1230"/>
      <point x="1112" y="1221" type="qcurve" smooth="yes"/>
      <point x="1112" y="1166"/>
      <point x="998" y="993" type="qcurve" smooth="no"/>
      <point x="977" y="1023"/>
      <point x="836" y="1240"/>
      <point x="814" y="1270" type="qcurve" smooth="no"/>
      <point x="905" y="1270" type="line" smooth="no"/>
      <point x="905" y="1622" type="line" smooth="no"/>
      <point x="53" y="1622" type="line" smooth="no"/>
      <point x="53" y="1270" type="line" smooth="no"/>
      <point x="165" y="1270" type="line" smooth="no"/>
      <point x="586" y="672" type="line" smooth="no"/>
      <point x="586" y="359" type="line" smooth="no"/>
      <point x="431" y="359" type="line" smooth="no"/>
      <point x="431" y="0" type="line" smooth="no"/>
      <point x="1300" y="0" type="line" smooth="no"/>
      <point x="1300" y="359" type="line" smooth="no"/>
      <point x="1143" y="359" type="line" smooth="no"/>
      <point x="1143" y="724" type="line" smooth="no"/>
      <point x="1347" y="1095" type="line" smooth="yes"/>
      <point x="1371" y="1140"/>
      <point x="1394" y="1179"/>
      <point x="1434" y="1233"/>
      <point x="1470" y="1254"/>
      <point x="1523" y="1270"/>
      <point x="1558" y="1270" type="qcurve" smooth="yes"/>
      <point x="1632" y="1270" type="line" smooth="no"/>
    </contour>
    <contour>
      <point x="762" y="1904" type="qcurve" smooth="yes"/>
      <point x="762" y="1796"/>
      <point x="629" y="1674"/>
      <point x="538" y="1674" type="qcurve" smooth="yes"/>
      <point x="445" y="1674"/>
      <point x="310" y="1797"/>
      <point x="310" y="1907" type="qcurve" smooth="yes"/>
      <point x="310" y="2014"/>
      <point x="444" y="2134"/>
      <point x="628" y="2134"/>
      <point x="762" y="2013"/>
    </contour>
    <contour>
      <point x="1379" y="1904" type="qcurve" smooth="yes"/>
      <point x="1379" y="1796"/>
      <point x="1246" y="1674"/>
      <point x="1155" y="1674" type="qcurve" smooth="yes"/>
      <point x="1062" y="1674"/>
      <point x="927" y="1797"/>
      <point x="927" y="1907" type="qcurve" smooth="yes"/>
      <point x="927" y="2014"/>
      <point x="1061" y="2134"/>
      <point x="1245" y="2134"/>
      <point x="1379" y="2013"/>
    </contour>
  </outline>
</glyph>
<glyph name="uni0206" format="1">
  <advance width="1421"/>
  <unicode hex="0206"/>
  <outline>
    <contour>
      <point x="1341" y="969" type="line" smooth="no"/>
      <point x="1341" y="1623" type="line" smooth="no"/>
      <point x="73" y="1623" type="line" smooth="no"/>
      <point x="73" y="1270" type="line" smooth="no"/>
      <point x="231" y="1270" type="line" smooth="no"/>
      <point x="231" y="359" type="line" smooth="no"/>
      <point x="73" y="359" type="line" smooth="no"/>
      <point x="73" y="0" type="line" smooth="no"/>
      <point x="1352" y="0" type="line" smooth="no"/>
      <point x="1352" y="687" type="line" smooth="no"/>
      <point x="1079" y="687" type="line" smooth="no"/>
      <point x="1016" y="420" type="line" smooth="no"/>
      <point x="1003" y="359" type="line" smooth="no"/>
      <point x="784" y="359" type="line" smooth="no"/>
      <point x="784" y="636" type="line" smooth="no"/>
      <point x="989" y="636" type="line" smooth="no"/>
      <point x="989" y="988" type="line" smooth="no"/>
      <point x="784" y="988" type="line" smooth="no"/>
      <point x="784" y="1270" type="line" smooth="no"/>
      <point x="997" y="1270" type="line" smooth="no"/>
      <point x="1073" y="968" type="line" smooth="no"/>
    </contour>
    <contour>
      <point x="665" y="2043"/>
      <point x="522" y="1999"/>
      <point x="407" y="1916"/>
      <point x="338" y="1782"/>
      <point x="338" y="1699" type="qcurve" smooth="no"/>
      <point x="590" y="1699" type="line" smooth="no"/>
      <point x="590" y="1775"/>
      <point x="680" y="1860"/>
      <point x="804" y="1860"/>
      <point x="894" y="1775"/>
      <point x="894" y="1699" type="qcurve" smooth="no"/>
      <point x="1146" y="1699" type="line" smooth="no"/>
      <point x="1146" y="1782"/>
      <point x="1077" y="1916"/>
      <point x="962" y="1999"/>
      <point x="819" y="2043"/>
    </contour>
  </outline>
</glyph>
<glyph name="uni0208" format="1">
  <advance width="1012"/>
  <unicode hex="0208"/>
  <outline>
    <contour>
      <point x="938" y="1623" type="line" smooth="no"/>
      <point x="74" y="1623" type="line" smooth="no"/>
      <point x="74" y="1270" type="line" smooth="no"/>
      <point x="217" y="1270" type="line" smooth="no"/>
      <point x="217" y="359" type="line" smooth="no"/>
      <point x="70" y="359" type="line" smooth="no"/>
      <point x="70" y="0" type="line" smooth="no"/>
      <point x="932" y="0" type="line" smooth="no"/>
      <point x="932" y="359" type="line" smooth="no"/>
      <point x="791" y="359" type="line" smooth="no"/>
      <point x="791" y="1270" type="line" smooth="no"/>
      <point x="938" y="1270" type="line" smooth="no"/>
    </contour>
    <contour>
      <point x="822" y="2385" type="line" smooth="no"/>
      <point x="975" y="1759" type="line" smooth="no"/>
      <point x="810" y="1699" type="line" smooth="no"/>
      <point x="522" y="2266" type="line" smooth="no"/>
    </contour>
    <contour>
      <point x="222" y="2366" type="line" smooth="no"/>
      <point x="529" y="1799" type="line" smooth="no"/>
      <point x="385" y="1700" type="line" smooth="no"/>
      <point x="-38" y="2175" type="line" smooth="no"/>
    </contour>
  </outline>
</glyph>
<glyph name="uni020A" format="1">
  <advance width="1012"/>
  <unicode hex="020a"/>
  <outline>
    <contour>
      <point x="938" y="1623" type="line" smooth="no"/>
      <point x="74" y="1623" type="line" smooth="no"/>
      <point x="74" y="1270" type="line" smooth="no"/>
      <point x="217" y="1270" type="line" smooth="no"/>
      <point x="217" y="359" type="line" smooth="no"/>
      <point x="70" y="359" type="line" smooth="no"/>
      <point x="70" y="0" type="line" smooth="no"/>
      <point x="932" y="0" type="line" smooth="no"/>
      <point x="932" y="359" type="line" smooth="no"/>
      <point x="791" y="359" type="line" smooth="no"/>
      <point x="791" y="1270" type="line" smooth="no"/>
      <point x="938" y="1270" type="line" smooth="no"/>
    </contour>
    <contour>
      <point x="433" y="2043"/>
      <point x="290" y="1999"/>
      <point x="175" y="1916"/>
      <point x="106" y="1782"/>
      <point x="106" y="1699" type="qcurve" smooth="no"/>
      <point x="358" y="1699" type="line" smooth="no"/>
      <point x="358" y="1775"/>
      <point x="448" y="1860"/>
      <point x="572" y="1860"/>
      <point x="662" y="1775"/>
      <point x="662" y="1699" type="qcurve" smooth="no"/>
      <point x="914" y="1699" type="line" smooth="no"/>
      <point x="914" y="1782"/>
      <point x="845" y="1916"/>
      <point x="730" y="1999"/>
      <point x="587" y="2043"/>
    </contour>
  </outline>
</glyph>
<glyph name="uni020F" format="1">
  <advance width="1368"/>
  <unicode hex="020f"/>
  <outline>
    <contour>
      <point x="506" y="-18"/>
      <point x="235" y="114"/>
      <point x="82" y="372"/>
      <point x="82" y="547" type="qcurve" smooth="yes"/>
      <point x="82" y="807"/>
      <point x="404" y="1091"/>
      <point x="964" y="1091"/>
      <point x="1286" y="807"/>
      <point x="1286" y="547" type="qcurve" smooth="yes"/>
      <point x="1286" y="372"/>
      <point x="1133" y="114"/>
      <point x="862" y="-18"/>
    </contour>
    <contour>
      <point x="640" y="779"/>
      <point x="582" y="741"/>
      <point x="556" y="667"/>
      <point x="547" y="596"/>
      <point x="547" y="545" type="qcurve" smooth="yes"/>
      <point x="547" y="294"/>
      <point x="821" y="294"/>
      <point x="821" y="545" type="qcurve" smooth="yes"/>
      <point x="821" y="596"/>
      <point x="812" y="667"/>
      <point x="786" y="741"/>
      <point x="728" y="779"/>
    </contour>
    <contour>
      <point x="608" y="1496"/>
      <point x="465" y="1452"/>
      <point x="350" y="1369"/>
      <point x="281" y="1235"/>
      <point x="281" y="1152" type="qcurve" smooth="no"/>
      <point x="533" y="1152" type="line" smooth="no"/>
      <point x="533" y="1228"/>
      <point x="623" y="1313"/>
      <point x="747" y="1313"/>
      <point x="837" y="1228"/>
      <point x="837" y="1152" type="qcurve" smooth="no"/>
      <point x="1089" y="1152" type="line" smooth="no"/>
      <point x="1089" y="1235"/>
      <point x="1020" y="1369"/>
      <point x="905" y="1452"/>
      <point x="762" y="1496"/>
    </contour>
  </outline>
</glyph>
<glyph name="uni0210" format="1">
  <advance width="1769"/>
  <unicode hex="0210"/>
  <outline>
    <contour>
      <point x="885" y="359" type="line" smooth="no"/>
      <point x="764" y="359" type="line" smooth="no"/>
      <point x="764" y="694" type="line" smooth="no"/>
      <point x="862" y="694" type="line" smooth="yes"/>
      <point x="922" y="694"/>
      <point x="998" y="660"/>
      <point x="1035" y="589"/>
      <point x="1048" y="510"/>
      <point x="1048" y="451" type="qcurve" smooth="yes"/>
      <point x="1048" y="256" type="line" smooth="yes"/>
      <point x="1048" y="215"/>
      <point x="1064" y="146"/>
      <point x="1088" y="96"/>
      <point x="1131" y="57"/>
      <point x="1170" y="32"/>
      <point x="1233" y="14"/>
      <point x="1279" y="5"/>
      <point x="1354" y="1"/>
      <point x="1399" y="0"/>
      <point x="1438" y="0" type="qcurve" smooth="yes"/>
      <point x="1700" y="0" type="line" smooth="no"/>
      <point x="1700" y="359" type="line" smooth="no"/>
      <point x="1644" y="359"/>
      <point x="1577" y="372"/>
      <point x="1545" y="403"/>
      <point x="1536" y="437"/>
      <point x="1536" y="466" type="qcurve" smooth="yes"/>
      <point x="1536" y="559" type="line" smooth="yes"/>
      <point x="1536" y="651"/>
      <point x="1408" y="773"/>
      <point x="1259" y="807" type="qcurve" smooth="no"/>
      <point x="1431" y="839"/>
      <point x="1618" y="1025"/>
      <point x="1618" y="1170" type="qcurve" smooth="yes"/>
      <point x="1618" y="1293"/>
      <point x="1544" y="1470"/>
      <point x="1401" y="1575"/>
      <point x="1212" y="1623"/>
      <point x="1089" y="1623" type="qcurve" smooth="yes"/>
      <point x="74" y="1623" type="line" smooth="no"/>
      <point x="74" y="1270" type="line" smooth="no"/>
      <point x="229" y="1270" type="line" smooth="no"/>
      <point x="229" y="359" type="line" smooth="no"/>
      <point x="75" y="359" type="line" smooth="no"/>
      <point x="75" y="-1" type="line" smooth="no"/>
      <point x="621" y="0"/>
      <point x="885" y="0" type="qcurve" smooth="no"/>
    </contour>
    <contour>
      <point x="758" y="920" type="line" smooth="no"/>
      <point x="758" y="1270" type="line" smooth="no"/>
      <point x="879" y="1270" type="line" smooth="yes"/>
      <point x="968" y="1270"/>
      <point x="1069" y="1175"/>
      <point x="1069" y="1096" type="qcurve" smooth="yes"/>
      <point x="1069" y="1046"/>
      <point x="1027" y="974"/>
      <point x="953" y="936"/>
      <point x="870" y="920"/>
      <point x="819" y="920" type="qcurve" smooth="yes"/>
    </contour>
    <contour>
      <point x="962" y="2385" type="line" smooth="no"/>
      <point x="1115" y="1759" type="line" smooth="no"/>
      <point x="950" y="1699" type="line" smooth="no"/>
      <point x="662" y="2266" type="line" smooth="no"/>
    </contour>
    <contour>
      <point x="362" y="2366" type="line" smooth="no"/>
      <point x="669" y="1799" type="line" smooth="no"/>
      <point x="525" y="1700" type="line" smooth="no"/>
      <point x="102" y="2175" type="line" smooth="no"/>
    </contour>
  </outline>
</glyph>
<glyph name="uni0215" format="1">
  <advance width="1468"/>
  <unicode hex="0215"/>
  <outline>
    <contour>
      <point x="827" y="0" type="line" smooth="no"/>
      <point x="1397" y="0" type="line" smooth="no"/>
      <point x="1397" y="305" type="line" smooth="no"/>
      <point x="1321" y="305" type="line" smooth="no"/>
      <point x="1321" y="1072" type="line" smooth="no"/>
      <point x="746" y="1072" type="line" smooth="no"/>
      <point x="746" y="761" type="line" smooth="no"/>
      <point x="827" y="761" type="line" smooth="no"/>
      <point x="827" y="438" type="line" smooth="yes"/>
      <point x="827" y="387"/>
      <point x="770" y="318"/>
      <point x="723" y="318" type="qcurve" smooth="yes"/>
      <point x="687" y="318"/>
      <point x="633" y="385"/>
      <point x="633" y="438" type="qcurve" smooth="yes"/>
      <point x="633" y="1072" type="line" smooth="no"/>
      <point x="59" y="1072" type="line" smooth="no"/>
      <point x="59" y="761" type="line" smooth="no"/>
      <point x="139" y="761" type="line" smooth="no"/>
      <point x="139" y="385" type="line" smooth="yes"/>
      <point x="139" y="-18"/>
      <point x="469" y="-18" type="qcurve" smooth="yes"/>
      <point x="587" y="-18"/>
      <point x="772" y="71"/>
      <point x="827" y="156" type="qcurve" smooth="no"/>
    </contour>
    <contour>
      <point x="919" y="1843" type="line" smooth="no"/>
      <point x="1072" y="1217" type="line" smooth="no"/>
      <point x="907" y="1157" type="line" smooth="no"/>
      <point x="619" y="1724" type="line" smooth="no"/>
    </contour>
    <contour>
      <point x="319" y="1824" type="line" smooth="no"/>
      <point x="626" y="1257" type="line" smooth="no"/>
      <point x="482" y="1158" type="line" smooth="no"/>
      <point x="59" y="1633" type="line" smooth="no"/>
    </contour>
  </outline>
</glyph>
<glyph name="scommaaccent" format="1">
  <advance width="1707"/>
  <unicode hex="0219"/>
  <outline>
    <contour>
      <point x="410" y="-899" type="line" smooth="no"/>
      <point x="684" y="-899"/>
      <point x="944" y="-640"/>
      <point x="944" y="-362" type="qcurve" smooth="yes"/>
      <point x="944" y="-239"/>
      <point x="920" y="-85" type="qcurve" smooth="no"/>
      <point x="410" y="-85" type="line" smooth="no"/>
      <point x="410" y="-451" type="line" smooth="no"/>
      <point x="599" y="-451" type="line" smooth="no"/>
      <point x="599" y="-493"/>
      <point x="597" y="-538"/>
      <point x="586" y="-598"/>
      <point x="562" y="-630"/>
      <point x="521" y="-661"/>
      <point x="455" y="-674"/>
      <point x="410" y="-674" type="qcurve" smooth="no"/>
    </contour>
    <contour>
      <point x="1142" y="761" type="line" smooth="no"/>
      <point x="1142" y="1081" type="line" smooth="no"/>
      <point x="974" y="1081" type="line" smooth="no"/>
      <point x="947" y="1033" type="line" smooth="no"/>
      <point x="937" y="1040"/>
      <point x="897" y="1059"/>
      <point x="745" y="1092"/>
      <point x="653" y="1092" type="qcurve" smooth="yes"/>
      <point x="532" y="1092"/>
      <point x="351" y="1022"/>
      <point x="241" y="863"/>
      <point x="241" y="746" type="qcurve" smooth="yes"/>
      <point x="241" y="669"/>
      <point x="296" y="553"/>
      <point x="383" y="485"/>
      <point x="488" y="436"/>
      <point x="594" y="402"/>
      <point x="681" y="370"/>
      <point x="736" y="321"/>
      <point x="736" y="287" type="qcurve" smooth="yes"/>
      <point x="736" y="249"/>
      <point x="669" y="209"/>
      <point x="628" y="209" type="qcurve" smooth="yes"/>
      <point x="562" y="209"/>
      <point x="470" y="318"/>
      <point x="458" y="387" type="qcurve" smooth="no"/>
      <point x="237" y="387" type="line" smooth="no"/>
      <point x="230" y="9" type="line" smooth="no"/>
      <point x="407" y="9" type="line" smooth="no"/>
      <point x="443" y="76" type="line" smooth="no"/>
      <point x="543" y="-18"/>
      <point x="751" y="-18" type="qcurve" smooth="yes"/>
      <point x="954" y="-18"/>
      <point x="1162" y="192"/>
      <point x="1162" y="395" type="qcurve" smooth="yes"/>
      <point x="1162" y="621"/>
      <point x="921" y="719" type="qcurve" smooth="yes"/>
      <point x="907" y="724"/>
      <point x="813" y="748"/>
      <point x="743" y="770"/>
      <point x="683" y="816"/>
      <point x="683" y="846" type="qcurve" smooth="yes"/>
      <point x="683" y="881"/>
      <point x="738" y="920"/>
      <point x="775" y="920" type="qcurve" smooth="yes"/>
      <point x="809" y="920"/>
      <point x="879" y="884"/>
      <point x="898" y="856" type="qcurve" smooth="yes"/>
      <point x="902" y="851"/>
      <point x="924" y="803"/>
      <point x="932.5" y="782" type="qcurve" smooth="yes"/>
      <point x="941" y="761" type="line" smooth="no"/>
    </contour>
  </outline>
</glyph>
<glyph name="uni021A" format="1">
  <advance width="1595"/>
  <unicode hex="021a"/>
  <outline>
    <contour>
      <point x="1532" y="965" type="line" smooth="no"/>
      <point x="1532" y="1622" type="line" smooth="no"/>
      <point x="75" y="1622" type="line" smooth="no"/>
      <point x="75" y="965" type="line" smooth="no"/>
      <point x="356" y="965" type="line" smooth="no"/>
      <point x="420" y="1270" type="line" smooth="no"/>
      <point x="520" y="1270" type="line" smooth="no"/>
      <point x="520" y="360" type="line" smooth="no"/>
      <point x="356" y="360" type="line" smooth="no"/>
      <point x="356" y="0" type="line" smooth="no"/>
      <point x="1247" y="0" type="line" smooth="no"/>
      <point x="1247" y="360" type="line" smooth="no"/>
      <point x="1083" y="360" type="line" smooth="no"/>
      <point x="1083" y="1270" type="line" smooth="no"/>
      <point x="1189" y="1270" type="line" smooth="no"/>
      <point x="1251" y="965" type="line" smooth="no"/>
    </contour>
    <contour>
      <point x="410" y="-899" type="line" smooth="no"/>
      <point x="684" y="-899"/>
      <point x="944" y="-640"/>
      <point x="944" y="-362" type="qcurve" smooth="yes"/>
      <point x="944" y="-239"/>
      <point x="920" y="-85" type="qcurve" smooth="no"/>
      <point x="410" y="-85" type="line" smooth="no"/>
      <point x="410" y="-451" type="line" smooth="no"/>
      <point x="599" y="-451" type="line" smooth="no"/>
      <point x="599" y="-493"/>
      <point x="597" y="-538"/>
      <point x="586" y="-598"/>
      <point x="562" y="-630"/>
      <point x="521" y="-661"/>
      <point x="455" y="-674"/>
      <point x="410" y="-674" type="qcurve" smooth="no"/>
    </contour>
  </outline>
</glyph>
<glyph name="circumflex" format="1">
  <advance width="1016"/>
  <unicode hex="02c6"/>
  <outline>
    <contour>
      <point x="376" y="1601" type="line" smooth="no"/>
      <point x="103" y="1224" type="line" smooth="no"/>
      <point x="257" y="1123" type="line" smooth="no"/>
      <point x="512" y="1368" type="line" smooth="no"/>
      <point x="767" y="1123" type="line" smooth="no"/>
      <point x="921" y="1224" type="line" smooth="no"/>
      <point x="647" y="1600" type="line" smooth="no"/>
    </contour>
  </outline>
</glyph>
<glyph name="ring" format="1">
  <advance width="1707"/>
  <unicode hex="02da"/>
  <outline>
    <contour>
      <point x="697" y="1240" type="qcurve" smooth="yes"/>
      <point x="622" y="1240"/>
      <point x="536" y="1328"/>
      <point x="536" y="1388" type="qcurve" smooth="yes"/>
      <point x="536" y="1447"/>
      <point x="621" y="1533"/>
      <point x="697" y="1533" type="qcurve" smooth="yes"/>
      <point x="775" y="1533"/>
      <point x="862" y="1447"/>
      <point x="862" y="1388" type="qcurve" smooth="yes"/>
      <point x="862" y="1328"/>
      <point x="774" y="1240"/>
    </contour>
    <contour>
      <point x="697" y="1138" type="qcurve" smooth="yes"/>
      <point x="828" y="1138"/>
      <point x="977" y="1288"/>
      <point x="977" y="1389" type="qcurve" smooth="yes"/>
      <point x="977" y="1489"/>
      <point x="830" y="1633"/>
      <point x="697" y="1633" type="qcurve" smooth="yes"/>
      <point x="568" y="1633"/>
      <point x="426" y="1488"/>
      <point x="426" y="1389" type="qcurve" smooth="yes"/>
      <point x="426" y="1288"/>
      <point x="570" y="1138"/>
    </contour>
  </outline>
</glyph>
<glyph name="pi" format="1">
  <advance width="1537"/>
  <unicode hex="03c0"/>
  <outline>
    <contour>
      <point x="151" y="0" type="line" smooth="no"/>
      <point x="712" y="0" type="line" smooth="no"/>
      <point x="713" y="761" type="line" smooth="no"/>
      <point x="871" y="761" type="line" smooth="no"/>
      <point x="871" y="388" type="line" smooth="yes"/>
      <point x="871" y="327"/>
      <point x="881" y="229"/>
      <point x="909" y="151"/>
      <point x="935" y="91"/>
      <point x="1034" y="18"/>
      <point x="1124" y="-2"/>
      <point x="1180" y="-12"/>
      <point x="1300" y="-17"/>
      <point x="1371" y="-18"/>
      <point x="1445" y="-18" type="qcurve" smooth="no"/>
      <point x="1445" y="287" type="line" smooth="no"/>
      <point x="1335" y="287"/>
      <point x="1295" y="418"/>
      <point x="1295" y="744.117" type="qcurve" smooth="yes"/>
      <point x="1295" y="761" type="line" smooth="no"/>
      <point x="1444" y="761" type="line" smooth="no"/>
      <point x="1444" y="1072" type="line" smooth="no"/>
      <point x="498" y="1072" type="line" smooth="yes"/>
      <point x="411" y="1072"/>
      <point x="286" y="1066"/>
      <point x="185" y="1041"/>
      <point x="121" y="1019"/>
      <point x="74" y="959"/>
      <point x="51" y="912"/>
      <point x="38" y="809"/>
      <point x="36" y="728"/>
      <point x="36" y="651" type="qcurve" smooth="no"/>
      <point x="94" y="651" type="line" smooth="no"/>
      <point x="94" y="700"/>
      <point x="194" y="761"/>
      <point x="298" y="761" type="qcurve" smooth="no"/>
    </contour>
  </outline>
</glyph>
<glyph name="bullet" format="1">
  <advance width="1368"/>
  <unicode hex="2022"/>
  <outline>
    <contour>
      <point x="297" y="537" type="qcurve" smooth="yes"/>
      <point x="297" y="550" type="line" smooth="yes"/>
      <point x="297" y="639"/>
      <point x="363" y="783"/>
      <point x="474" y="872"/>
      <point x="611" y="919"/>
      <point x="686" y="919" type="qcurve" smooth="yes"/>
      <point x="762" y="919"/>
      <point x="903" y="870"/>
      <point x="1017" y="778"/>
      <point x="1086" y="629"/>
      <point x="1086" y="537" type="qcurve" smooth="yes"/>
      <point x="1086" y="442"/>
      <point x="1018" y="287"/>
      <point x="904" y="192"/>
      <point x="763" y="141"/>
      <point x="687" y="141" type="qcurve" smooth="yes"/>
      <point x="610" y="141"/>
      <point x="471" y="192"/>
      <point x="361" y="287"/>
      <point x="297" y="441"/>
    </contour>
  </outline>
</glyph>
<glyph name="trademark" format="1">
  <advance width="2679"/>
  <unicode hex="2122"/>
  <outline>
    <contour>
      <point x="1050" y="1183" type="line" smooth="no"/>
      <point x="1050" y="1622" type="line" smooth="no"/>
      <point x="75" y="1622" type="line" smooth="no"/>
      <point x="75" y="1183" type="line" smooth="no"/>
      <point x="263" y="1183" type="line" smooth="no"/>
      <point x="306" y="1382" type="line" smooth="no"/>
      <point x="373" y="1382" type="line" smooth="no"/>
      <point x="373" y="778" type="line" smooth="no"/>
      <point x="263" y="778" type="line" smooth="no"/>
      <point x="263" y="537" type="line" smooth="no"/>
      <point x="859" y="537" type="line" smooth="no"/>
      <point x="859" y="778" type="line" smooth="no"/>
      <point x="749" y="778" type="line" smooth="no"/>
      <point x="749" y="1382" type="line" smooth="no"/>
      <point x="820" y="1382" type="line" smooth="no"/>
      <point x="862" y="1183" type="line" smooth="no"/>
    </contour>
    <contour>
      <point x="1471" y="1205" type="line" smooth="no"/>
      <point x="1750" y="537" type="line" smooth="no"/>
      <point x="1938" y="537" type="line" smooth="no"/>
      <point x="2167" y="1191" type="line" smooth="no"/>
      <point x="2167" y="783" type="line" smooth="no"/>
      <point x="2084" y="783" type="line" smooth="no"/>
      <point x="2084" y="537" type="line" smooth="no"/>
      <point x="2622" y="537" type="line" smooth="no"/>
      <point x="2622" y="783" type="line" smooth="no"/>
      <point x="2519" y="783" type="line" smooth="no"/>
      <point x="2519" y="1390" type="line" smooth="no"/>
      <point x="2617" y="1390" type="line" smooth="no"/>
      <point x="2617" y="1623" type="line" smooth="no"/>
      <point x="2092" y="1623" type="line" smooth="no"/>
      <point x="1908" y="1110" type="line" smooth="no"/>
      <point x="1700" y="1623" type="line" smooth="no"/>
      <point x="1142" y="1623" type="line" smooth="no"/>
      <point x="1142" y="1383" type="line" smooth="no"/>
      <point x="1254" y="1383" type="line" smooth="no"/>
      <point x="1254" y="944" type="line" smooth="yes"/>
      <point x="1254" y="904"/>
      <point x="1252" y="866"/>
      <point x="1242" y="814"/>
      <point x="1219" y="791"/>
      <point x="1176" y="774"/>
      <point x="1144" y="774" type="qcurve" smooth="no"/>
      <point x="1144" y="537" type="line" smooth="no"/>
      <point x="1580" y="537" type="line" smooth="no"/>
      <point x="1580" y="781" type="line" smooth="no"/>
      <point x="1548" y="781"/>
      <point x="1505" y="795"/>
      <point x="1483" y="811"/>
      <point x="1472" y="848"/>
      <point x="1471" y="870"/>
      <point x="1471" y="895" type="qcurve" smooth="yes"/>
    </contour>
  </outline>
</glyph>
<glyph name="partialdiff" format="1">
  <advance width="1354"/>
  <unicode hex="2202"/>
  <outline>
    <contour>
      <point x="768" y="1345" type="line" smooth="no"/>
      <point x="1057" y="1050"/>
      <point x="1136" y="953"/>
      <point x="1188" y="873"/>
      <point x="1245" y="772"/>
      <point x="1279" y="682"/>
      <point x="1301" y="582"/>
      <point x="1301" y="534" type="qcurve" smooth="yes"/>
      <point x="1301" y="370"/>
      <point x="1132" y="116"/>
      <point x="848" y="-18"/>
      <point x="674" y="-18" type="qcurve" smooth="yes"/>
      <point x="512" y="-18"/>
      <point x="229" y="126"/>
      <point x="55" y="386"/>
      <point x="54" y="544" type="qcurve" smooth="yes"/>
      <point x="52" y="755"/>
      <point x="311" y="1012"/>
      <point x="527" y="1023" type="qcurve" smooth="no"/>
      <point x="517" y="1050"/>
      <point x="372" y="1207"/>
      <point x="232" y="1344"/>
      <point x="232" y="1345" type="qcurve" smooth="no"/>
    </contour>
    <contour>
      <point x="785" y="550" type="qcurve" smooth="yes"/>
      <point x="785" y="588"/>
      <point x="783" y="636"/>
      <point x="770" y="704"/>
      <point x="747" y="744"/>
      <point x="701" y="774"/>
      <point x="668" y="775" type="qcurve" smooth="yes"/>
      <point x="638" y="775"/>
      <point x="595" y="737"/>
      <point x="576" y="691"/>
      <point x="565" y="613"/>
      <point x="564" y="576"/>
      <point x="564" y="544" type="qcurve" smooth="yes"/>
      <point x="564" y="327"/>
      <point x="680" y="327" type="qcurve" smooth="yes"/>
      <point x="714" y="327"/>
      <point x="759" y="376"/>
      <point x="778" y="455"/>
      <point x="785" y="517"/>
    </contour>
  </outline>
</glyph>
<glyph name="minus" format="1">
  <advance width="774"/>
  <unicode hex="2212"/>
  <outline>
    <contour>
      <point x="70" y="539" type="line" smooth="no"/>
      <point x="70" y="315" type="line" smooth="no"/>
      <point x="717" y="315" type="line" smooth="no"/>
      <point x="717" y="539" type="line" smooth="no"/>
    </contour>
  </outline>
</glyph>
<glyph name="integral" format="1">
  <advance width="864"/>
  <unicode hex="222b"/>
  <outline>
    <contour>
      <point x="616" y="1072" type="qcurve" smooth="no"/>
      <point x="610" y="1180"/>
      <point x="663" y="1265"/>
      <point x="726" y="1265" type="qcurve" smooth="yes"/>
      <point x="764" y="1265"/>
      <point x="822" y="1252" type="qcurve" smooth="no"/>
      <point x="822" y="1563" type="line" smooth="no"/>
      <point x="808" y="1568"/>
      <point x="755" y="1584"/>
      <point x="594" y="1610"/>
      <point x="514" y="1610" type="qcurve" smooth="yes"/>
      <point x="134" y="1610"/>
      <point x="134" y="1207" type="qcurve" smooth="yes"/>
      <point x="134" y="299" type="line" smooth="yes"/>
      <point x="134" y="188"/>
      <point x="88" y="106"/>
      <point x="27" y="106" type="qcurve" smooth="yes"/>
      <point x="-10" y="106"/>
      <point x="-69" y="119" type="qcurve" smooth="no"/>
      <point x="-69" y="-192" type="line" smooth="no"/>
      <point x="-55" y="-197"/>
      <point x="-2" y="-213"/>
      <point x="159" y="-239"/>
      <point x="239" y="-239" type="qcurve" smooth="yes"/>
      <point x="616" y="-239"/>
      <point x="616" y="164" type="qcurve" smooth="no"/>
      <point x="623" y="298"/>
    </contour>
  </outline>
</glyph>
<glyph name="uniF6D6" format="1">
  <advance width="1478"/>
  <unicode hex="f6d6"/>
  <outline>
    <contour>
      <point x="962" y="1814" type="line" smooth="no"/>
      <point x="1115" y="1188" type="line" smooth="no"/>
      <point x="950" y="1128" type="line" smooth="no"/>
      <point x="662" y="1695" type="line" smooth="no"/>
    </contour>
    <contour>
      <point x="362" y="1795" type="line" smooth="no"/>
      <point x="669" y="1228" type="line" smooth="no"/>
      <point x="525" y="1129" type="line" smooth="no"/>
      <point x="102" y="1604" type="line" smooth="no"/>
    </contour>
  </outline>
</glyph>
<glyph name="uniFB01" format="1">
  <advance width="1638"/>
  <unicode hex="fb01"/>
  <outline>
    <contour>
      <point x="1497" y="1072" type="line" smooth="no"/>
      <point x="616" y="1072" type="line" smooth="no"/>
      <point x="610" y="1180"/>
      <point x="663" y="1265"/>
      <point x="726" y="1265" type="qcurve" smooth="yes"/>
      <point x="764" y="1265"/>
      <point x="822" y="1252" type="qcurve" smooth="no"/>
      <point x="822" y="1563" type="line" smooth="no"/>
      <point x="808" y="1568"/>
      <point x="755" y="1584"/>
      <point x="594" y="1610"/>
      <point x="514" y="1610" type="qcurve" smooth="yes"/>
      <point x="134" y="1610"/>
      <point x="134" y="1207" type="qcurve" smooth="no"/>
      <point x="136" y="1075"/>
      <point x="136" y="1072" type="qcurve" smooth="no"/>
      <point x="53" y="1072" type="line" smooth="no"/>
      <point x="53" y="761" type="line" smooth="no"/>
      <point x="137" y="761" type="line" smooth="no"/>
      <point x="137" y="299" type="line" smooth="no"/>
      <point x="53" y="299" type="line" smooth="no"/>
      <point x="53" y="0" type="line" smooth="no"/>
      <point x="733" y="0" type="line" smooth="no"/>
      <point x="733" y="299" type="line" smooth="no"/>
      <point x="623" y="299" type="line" smooth="no"/>
      <point x="623" y="761" type="line" smooth="no"/>
      <point x="1016" y="761" type="line" smooth="no"/>
      <point x="1016" y="299" type="line" smooth="no"/>
      <point x="934" y="299" type="line" smooth="no"/>
      <point x="934" y="0" type="line" smooth="no"/>
      <point x="1581" y="0" type="line" smooth="no"/>
      <point x="1581" y="299" type="line" smooth="no"/>
      <point x="1497" y="299" type="line" smooth="no"/>
    </contour>
    <contour>
      <point x="1216" y="1135" type="qcurve" smooth="yes"/>
      <point x="1097" y="1135"/>
      <point x="939" y="1270"/>
      <point x="939" y="1385" type="qcurve" smooth="yes"/>
      <point x="939" y="1498"/>
      <point x="1094" y="1630"/>
      <point x="1216" y="1630" type="qcurve" smooth="yes"/>
      <point x="1343" y="1630"/>
      <point x="1503" y="1498"/>
      <point x="1503" y="1385" type="qcurve" smooth="yes"/>
      <point x="1503" y="1270"/>
      <point x="1338" y="1135"/>
    </contour>
  </outline>
</glyph>
